<?xml version="1.0" encoding="UTF-8"?>
<svg version="1.1" xmlns="http://www.w3.org/2000/svg" width="5000" height="5000">
<path d="M0 0 C1650 0 3300 0 5000 0 C5000 1650 5000 3300 5000 5000 C3350 5000 1700 5000 0 5000 C0 3350 0 1700 0 0 Z " fill="#2F2F2F" transform="translate(0,0)"/>
<path d="M0 0 C1.01694701 -0.00175304 2.03389403 -0.00350607 3.08165762 -0.00531223 C6.47499689 -0.00994858 9.86829287 -0.00751285 13.26163387 -0.00507832 C15.72492998 -0.00694748 18.1882258 -0.00924861 20.65152115 -0.01194364 C26.00004252 -0.01678002 31.34855145 -0.01851765 36.69707394 -0.01748753 C44.65101779 -0.01595936 52.60495166 -0.02013154 60.55889357 -0.02536215 C75.59384012 -0.03502334 90.62878325 -0.03784594 105.66373254 -0.03841921 C117.27754303 -0.03887913 128.89135218 -0.04093946 140.50516224 -0.04411983 C143.85083498 -0.04501741 147.19650773 -0.04590723 150.54218048 -0.04679471 C151.7898805 -0.04712628 151.7898805 -0.04712628 153.06278657 -0.04746456 C176.45417296 -0.0536172 199.84555888 -0.05756528 223.23694611 -0.05712128 C224.11851643 -0.0571057 225.00008676 -0.05709012 225.90837134 -0.05707407 C230.37630539 -0.05699096 234.84423944 -0.05689192 239.31217349 -0.05678936 C240.19948412 -0.05676942 241.08679475 -0.05674947 242.00099358 -0.05672892 C243.79535195 -0.05668848 245.58971032 -0.05664669 247.38406869 -0.05660353 C275.29296424 -0.05599096 303.20184764 -0.06349462 331.11073971 -0.07717609 C362.48370762 -0.09254948 393.85666755 -0.10114155 425.22963947 -0.10021287 C428.5775127 -0.10013824 431.92538593 -0.10008954 435.27325916 -0.10005856 C436.09755803 -0.1000469 436.9218569 -0.10003525 437.77113452 -0.10002324 C451.01431228 -0.09999252 464.25747945 -0.10636802 477.50065406 -0.11499082 C490.82001457 -0.12348361 504.13935967 -0.12444455 517.45872141 -0.1178815 C525.36234291 -0.11419661 533.26591744 -0.11598635 541.16953392 -0.12582384 C547.08453531 -0.1325614 552.99950035 -0.12874167 558.91450142 -0.12095062 C561.29738455 -0.1194185 563.68027281 -0.12122086 566.06314988 -0.12681069 C582.90799801 -0.16368946 599.55662439 0.23816264 615.98256588 4.37863445 C616.85808102 4.59479412 617.73359615 4.81095379 618.63564205 5.03366375 C644.65952516 11.68608261 668.74488123 24.80838371 688.35756588 43.12863445 C688.98050533 43.70774578 689.60344479 44.28685711 690.24526119 44.88351727 C719.25029757 72.12978439 740.14788655 111.57879027 741.44849224 151.95109362 C741.48438084 155.23731703 741.48802327 158.52212301 741.48061371 161.80853653 C741.48176755 163.07000603 741.4829214 164.33147553 741.48411021 165.63117138 C741.48716774 169.12711896 741.48401369 172.62303728 741.47983207 176.11898268 C741.47638877 179.92428401 741.4787704 183.72958247 741.48040956 187.53488439 C741.48248112 194.20214759 741.48084324 200.86940185 741.47677135 207.53666401 C741.47073345 217.45062131 741.47043582 227.36457299 741.47131334 237.2785318 C741.47262698 253.9558175 741.46928683 270.63309925 741.46329594 287.3103838 C741.45737926 303.8233883 741.45353006 320.33639115 741.45244312 336.84939671 C741.45237438 337.87606101 741.45230564 338.90272532 741.45223482 339.96050067 C741.45189649 345.17439332 741.4515951 350.38828597 741.45130794 355.60217863 C741.44920744 392.53376854 741.44246982 429.4653563 741.43300533 466.396945 C741.42382123 502.27585113 741.41673745 538.15475668 741.41249752 574.03366375 C741.41236599 575.13957544 741.41223447 576.24548714 741.41209896 577.38491131 C741.41078044 588.49091407 741.40950462 599.59691684 741.4082601 610.70291961 C741.40572387 633.32720069 741.40290262 655.95148173 741.39990902 678.57576275 C741.39977173 679.61599443 741.39963444 680.65622611 741.39949299 681.72797997 C741.39029206 751.19486569 741.37444683 820.66175022 741.35756588 890.12863445 C738.31694486 891.73240959 735.27575837 893.33510959 732.23447323 894.93762493 C731.37879143 895.38897084 730.52310964 895.84031675 729.64149809 896.30533981 C723.53687897 899.52106353 717.40130371 902.66260408 711.21303463 905.71457195 C709.27873488 906.67539883 707.34449184 907.63633986 705.41030025 908.59738445 C702.48329425 910.04857477 699.55563342 911.49841124 696.62685299 912.94601727 C683.22532047 919.57543303 670.01763804 926.47829608 656.9326849 933.71271038 C653.23018569 935.74852221 649.5101878 937.75144753 645.7903204 939.75529766 C633.78531072 946.22393569 622.03085811 953.08149592 610.35756588 960.12863445 C609.52499264 960.62911297 608.6924194 961.12959148 607.83461666 961.64523602 C574.03554033 982.02477779 541.62447194 1004.62278424 511.13100338 1029.67550945 C509.51430658 1031.00020374 507.889483 1032.31496405 506.26381588 1033.62863445 C501.01650336 1037.87365132 495.92137054 1042.23843125 490.93959713 1046.79269695 C489.55367721 1048.04652466 488.16245725 1049.29515538 486.74089718 1050.50842571 C480.67689912 1055.69838955 475.03598109 1061.28640663 469.39272213 1066.92550945 C468.34961388 1067.96539397 467.30643517 1069.00520782 466.26319027 1070.04495525 C464.08723089 1072.21496372 461.91331026 1074.38699118 459.74062252 1076.56027508 C456.98474093 1079.31625807 454.22204917 1082.06530148 451.45751953 1084.81260586 C449.30306039 1086.95583325 447.15327629 1089.10370549 445.00468922 1091.25281811 C443.98943705 1092.26690676 442.97260225 1093.27941401 441.95401859 1094.29015636 C436.06385667 1100.13919866 430.52673333 1106.14094749 425.36341 1112.65066814 C423.32309533 1115.17121846 421.18343238 1117.56028052 418.98256588 1119.94113445 C413.98393064 1125.44049654 409.44188118 1131.26171825 404.90248775 1137.1379118 C403.26817863 1139.24381518 401.61893252 1141.33735962 399.96694088 1143.4294157 C365.96101294 1186.59604722 337.92417595 1234.07128137 313.35756588 1283.12863445 C313.0157629 1283.80988384 312.67395992 1284.49113323 312.32179928 1285.19302654 C290.50209437 1328.72487992 222.69462412 1469.03727215 235.35756588 1512.56613445 C235.68756588 1513.41175945 236.01756588 1514.25738445 236.35756588 1515.12863445 C242.532575 1516.08919143 246.10713851 1514.02671375 251.18569088 1510.58957195 C261.47482404 1502.88918997 271.3457962 1493.16133412 279.67006588 1483.37863445 C282.4650243 1480.13348139 285.33222494 1476.96750953 288.23256588 1473.81613445 C292.27957884 1469.37963453 296.1063989 1464.81592097 299.87709713 1460.14425945 C302.80725396 1456.58192705 305.82531827 1453.10403992 308.85756588 1449.62863445 C314.14776398 1443.55829038 319.29523433 1437.39092608 324.35756588 1431.12863445 C325.85642404 1429.29436748 327.35643865 1427.46104493 328.85756588 1425.62863445 C329.60522213 1424.71468914 330.35287838 1423.80074383 331.12319088 1422.8591032 C332.57053639 1421.0904065 334.01841889 1419.32214902 335.46694088 1417.5544157 C340.51378795 1411.39321006 345.53959745 1405.2151799 350.55971432 1399.03219891 C354.36273708 1394.3494635 358.17867881 1389.67754946 362.00209713 1385.01144695 C364.30769005 1382.18967652 366.60483695 1379.36123838 368.90029049 1376.53122234 C375.75309042 1368.08347062 382.65505271 1359.67742251 389.578269 1351.28732586 C391.37704413 1349.10500291 393.17246822 1346.9199649 394.96694088 1344.7341032 C401.59457279 1336.66399729 408.26775055 1328.63791095 415.03530025 1320.6847868 C416.38006783 1319.10215229 417.72098704 1317.51633827 419.06069088 1315.9294157 C424.78452133 1309.1495242 430.53977042 1302.39750061 436.32240963 1295.66769695 C438.34327694 1293.31489034 440.35568147 1290.95524234 442.36147213 1288.58957195 C448.31920695 1281.57550805 454.4249215 1274.737426 460.69740963 1268.00363445 C462.75178082 1265.78334488 464.76093237 1263.54646139 466.73256588 1261.25363445 C470.18051515 1257.27065858 473.76664601 1253.41978167 477.35756588 1249.56613445 C477.93941647 1248.94045574 478.52126705 1248.31477703 479.12074947 1247.67013836 C482.59793644 1243.9505161 486.14080647 1240.31457205 489.77333736 1236.74631023 C491.4048683 1235.08033336 492.91715575 1233.34836456 494.42006588 1231.56613445 C501.81075102 1223.00497882 510.01442378 1214.92750045 518.64662838 1207.6247282 C520.41609098 1206.0774584 522.03731036 1204.44388137 523.67006588 1202.75363445 C527.3956132 1198.96019561 531.48960305 1195.68952508 535.63100338 1192.36300945 C537.9573294 1190.45662194 540.15911285 1188.49068827 542.35756588 1186.44113445 C562.77515598 1168.14580282 590.87356952 1148.2033956 619.35756588 1148.12863445 C629.38483612 1148.76048984 637.39801804 1152.61650615 644.23256588 1160.00363445 C651.846811 1169.37777586 653.18058854 1178.23111575 652.35756588 1190.12863445 C649.33358937 1208.08860304 638.56844936 1223.27367469 627.35756588 1237.12863445 C626.89060299 1237.70597332 626.4236401 1238.28331219 625.94252682 1238.87814617 C616.0066392 1251.05614062 605.19312739 1262.37546349 594.10756588 1273.50363445 C593.26782223 1274.34805096 592.42807858 1275.19246746 591.56288815 1276.06247234 C587.24048831 1280.37376829 582.84997836 1284.53163813 578.22035885 1288.51095867 C575.24950439 1291.09089073 572.40668535 1293.80397785 569.54506588 1296.50363445 C564.54633356 1301.18651649 559.41768737 1305.60396241 554.06850338 1309.88644695 C551.06851865 1312.36770233 548.20607803 1314.97732699 545.35756588 1317.62863445 C540.72516362 1321.93867882 535.93633505 1325.97925297 531.00600338 1329.94894695 C528.38481469 1332.10620844 525.86602307 1334.34174446 523.35756588 1336.62863445 C519.9829564 1339.70517117 516.53940724 1342.63981663 512.98256588 1345.50363445 C507.92141538 1349.59837008 503.13813385 1353.92044107 498.37709713 1358.35519695 C496.23237038 1360.34849332 494.03551539 1362.26445303 491.81069088 1364.16769695 C486.33642661 1368.9429947 481.1828304 1374.04396092 476.0301733 1379.16086102 C474.87610258 1380.3034024 473.71757669 1381.44146162 472.55458736 1382.57492352 C459.42240741 1394.83463588 459.42240741 1394.83463588 453.35756588 1411.12863445 C454.07207895 1414.35250078 454.07207895 1414.35250078 457.04506588 1415.75363445 C496.658048 1432.19675911 569.65740471 1408.79808284 606.81459713 1393.52707195 C646.50082046 1376.68362506 682.78025777 1353.29714802 714.33803463 1323.90207195 C716.52360243 1321.87054652 718.76370817 1319.91781163 721.02944088 1317.9762907 C725.88614035 1313.74316035 730.43268403 1309.20395971 734.97597408 1304.64059734 C736.41781809 1303.1933906 737.86493704 1301.75161419 739.312644 1300.31027508 C744.54087469 1295.08618614 749.5675148 1289.75703854 754.35756588 1284.12863445 C755.37933483 1282.96050619 756.40274916 1281.79381492 757.42787838 1280.62863445 C770.80451332 1265.33206407 783.29888391 1249.48259093 795.35756588 1233.12863445 C796.18490231 1232.01150066 796.18490231 1232.01150066 797.0289526 1230.87179852 C806.5949029 1217.9291172 815.54934767 1204.59585484 824.35756588 1191.12863445 C824.94118893 1190.23724773 825.52481197 1189.34586102 826.12612057 1188.42746258 C838.12624681 1170.02219105 849.26003563 1151.0709056 860.29897213 1132.0778532 C870.73754013 1114.12094445 881.95492853 1096.79269078 894.35756588 1080.12863445 C895.16638717 1079.03244814 895.97499931 1077.93610746 896.78334713 1076.83957195 C900.79453313 1071.43907641 904.89973912 1066.1139547 909.04506588 1060.81613445 C909.48479733 1060.25313641 909.92452877 1059.69013836 910.37758541 1059.11007977 C911.22296595 1058.03586728 912.07952876 1056.97032493 912.94899919 1055.91551599 C914.37719451 1054.16531699 914.37719451 1054.16531699 915.51949883 1052.30323142 C917.60139023 1049.31358552 919.20613877 1047.43254153 922.8024243 1046.48333978 C925.91201765 1046.2325536 928.95356775 1046.21172656 932.07308769 1046.26171303 C933.8636565 1046.24869887 933.8636565 1046.24869887 935.69039842 1046.23542181 C939.01146704 1046.21839548 942.32972938 1046.2328196 945.65055117 1046.26036838 C949.26036644 1046.28260923 952.87001014 1046.26424096 956.47983795 1046.25099427 C962.80927735 1046.23339083 969.13826851 1046.2418502 975.46767521 1046.26727962 C984.88042278 1046.30499184 994.2928617 1046.3026628 1003.7056637 1046.29215307 C1019.5446731 1046.27564703 1035.38349074 1046.29205431 1051.22246265 1046.32739353 C1066.92296357 1046.36237337 1082.62338115 1046.38373226 1098.32392216 1046.38661671 C1099.30031902 1046.38680763 1100.27671589 1046.38699856 1101.28270054 1046.38719528 C1105.24630589 1046.38792475 1109.20991125 1046.38855189 1113.17351664 1046.3890455 C1149.3189879 1046.3935626 1185.46434299 1046.4316293 1221.60976315 1046.490695 C1255.7028685 1046.54638611 1289.79591035 1046.58187986 1323.88906002 1046.59323406 C1325.46255689 1046.5937659 1325.46255689 1046.5937659 1327.06784158 1046.59430848 C1332.3516761 1046.59609139 1337.63551062 1046.59784467 1342.91934514 1046.59959346 C1344.48350236 1046.60011276 1344.48350236 1046.60011276 1346.07925871 1046.60064254 C1348.18205284 1046.60133808 1350.28484697 1046.60202701 1352.38764109 1046.60270931 C1385.93279159 1046.61371736 1419.47793027 1046.64095762 1453.02306781 1046.67171482 C1462.83512013 1046.68066453 1472.64717206 1046.6888749 1482.45922637 1046.69532561 C1503.10155617 1046.70904745 1523.74385305 1046.72790447 1544.38615578 1046.76503932 C1552.92149829 1046.78026169 1561.45681696 1046.79262359 1569.99217319 1046.79601574 C1577.07773984 1046.79884105 1584.16325705 1046.80837908 1591.24880131 1046.82670166 C1594.80830781 1046.8357237 1598.3677456 1046.84185746 1601.92726415 1046.83911663 C1653.86114996 1046.82244224 1699.63829637 1055.97567844 1738.35756588 1093.12863445 C1739.2985815 1094.00648602 1740.23959713 1094.88433758 1741.20912838 1095.7887907 C1753.82628423 1107.77539684 1763.43529215 1121.68836396 1771.35756588 1137.12863445 C1771.67564205 1137.74029461 1771.99371822 1138.35195477 1772.32143307 1138.98215008 C1785.30488299 1164.24357512 1788.9781614 1190.86932154 1788.86550045 1218.97397137 C1788.87011968 1221.51403519 1788.8764794 1224.05409633 1788.88440943 1226.59415197 C1788.89754184 1232.07648993 1788.89849842 1237.55861165 1788.88822079 1243.04095173 C1788.87297885 1251.1938558 1788.88088332 1259.34662854 1788.89305402 1267.49953197 C1788.91403451 1282.06755711 1788.91232448 1296.63551175 1788.90073837 1311.20354347 C1788.89064938 1323.95277667 1788.88806176 1336.70198413 1788.89282894 1349.45122051 C1788.89328725 1350.72306789 1788.89328725 1350.72306789 1788.89375482 1352.02060916 C1788.89500031 1355.46308555 1788.89627393 1358.90556193 1788.89759388 1362.3480383 C1788.90981142 1394.59684968 1788.89876538 1426.84561635 1788.87720629 1459.09442083 C1788.85822592 1487.70334281 1788.85992452 1516.31219356 1788.87905025 1544.92111492 C1788.90050002 1577.11347689 1788.90894472 1609.30579939 1788.8966012 1641.49816751 C1788.89531846 1644.9341278 1788.89406709 1648.37008809 1788.89282894 1651.80604839 C1788.89251263 1652.65197962 1788.89219632 1653.49791086 1788.89187043 1654.36947637 C1788.88733342 1667.10616726 1788.89261753 1679.84282949 1788.90274715 1692.57951641 C1788.91421578 1707.07148001 1788.91125784 1721.56336252 1788.88962418 1736.05531609 C1788.87793464 1744.15149104 1788.87703114 1752.24749009 1788.89220888 1760.34366024 C1788.90231844 1766.40868005 1788.89124547 1772.47347551 1788.87231058 1778.53848189 C1788.86787609 1780.9769586 1788.87003886 1783.41545913 1788.87981373 1785.85392028 C1789.0537853 1832.89552492 1772.47069412 1874.00246404 1739.73256588 1907.7887907 C1735.23876714 1912.30414548 1730.47953293 1916.34157099 1725.35756588 1920.12863445 C1724.36498775 1920.86340008 1723.37240963 1921.5981657 1722.34975338 1922.35519695 C1705.94257981 1934.08612449 1688.47622001 1942.58005626 1669.17006588 1948.37863445 C1668.41894527 1948.612841 1667.66782467 1948.84704754 1666.89394283 1949.08835125 C1645.90337738 1955.06392408 1624.03779995 1954.57065098 1602.43205846 1954.53037224 C1597.83888615 1954.52517365 1593.24575281 1954.53750592 1588.65259302 1954.54750377 C1580.62219073 1954.56262206 1572.59184216 1954.56680747 1564.56142712 1954.56362629 C1552.62070643 1954.55894664 1540.68004616 1954.5714951 1528.73933742 1954.58745602 C1508.64834217 1954.61382913 1488.5573607 1954.62640552 1468.4663496 1954.63102055 C1448.58407472 1954.63563307 1428.70181895 1954.646438 1408.81955242 1954.66544819 C1407.58167067 1954.66662832 1406.34378892 1954.66780844 1405.06839561 1954.66902433 C1398.78139246 1954.67505005 1392.49438942 1954.68118578 1386.20738642 1954.68736384 C1341.71822649 1954.73088444 1297.22906535 1954.76062135 1252.7398901 1954.78219891 C1241.96742911 1954.78742974 1231.19496815 1954.79270923 1220.42250729 1954.79819012 C1219.75435246 1954.79853002 1219.08619763 1954.79886992 1218.39779568 1954.79922011 C1187.3076127 1954.81510285 1156.2174371 1954.83880619 1125.12726087 1954.86451304 C1123.10761149 1954.86618284 1121.0879621 1954.86784928 1119.06831272 1954.86951503 C1105.68342472 1954.8805599 1092.29853684 1954.89173959 1078.91364903 1954.90300865 C1051.64897339 1954.92596055 1024.38429708 1954.94806363 997.11962032 1954.96965313 C995.8661336 1954.97064675 994.61264689 1954.97164037 993.32117572 1954.9726641 C909.66664842 1955.03887844 826.01210778 1955.08530803 742.35756588 1955.12863445 C742.3571657 1955.90524677 742.35676551 1956.68185909 742.3563532 1957.48200511 C742.31267423 2042.04192951 742.26529275 2126.60185154 742.19858456 2211.16176128 C742.19758899 2212.42508251 742.19659342 2213.68840374 742.19556769 2214.99000743 C742.17443616 2241.77733936 742.15270717 2268.56467078 742.1302605 2295.35200164 C742.11898488 2308.80885602 742.10782724 2322.26571049 742.09678119 2335.72256506 C742.09511429 2337.75243704 742.09344401 2339.782309 742.0917736 2341.81218097 C742.06609179 2373.05655912 742.04293519 2404.30093662 742.02712154 2435.54532146 C742.02678168 2436.21672329 742.02644182 2436.88812511 742.02609165 2437.57987244 C742.0206277 2448.40434391 742.01537634 2459.22881549 742.01015321 2470.05328708 C741.98828991 2515.3532909 741.95688526 2560.65327951 741.91257475 2605.95326779 C741.90641259 2612.25768667 741.9003621 2618.56210565 741.89437962 2624.8665247 C741.89319873 2626.10731279 741.89201785 2627.34810089 741.89080119 2628.62648862 C741.87208686 2648.59183277 741.86366617 2668.5571686 741.85910464 2688.52252045 C741.85429763 2708.59922346 741.83862285 2728.67589479 741.81190022 2748.7525808 C741.79635703 2760.67736682 741.7891011 2772.6020903 741.79379659 2784.52688588 C741.79611377 2792.49987852 741.78753807 2800.4728122 741.77024177 2808.44578626 C741.76070442 2812.98403958 741.75577341 2817.52216261 741.76417025 2822.06042121 C741.79892586 2842.7643119 741.61748807 2862.79271164 735.60756588 2882.81613445 C735.22350582 2884.12155193 735.22350582 2884.12155193 734.83168697 2885.45334148 C732.33391393 2893.66633243 729.14364897 2901.43259642 725.35756588 2909.12863445 C725.05093014 2909.75963055 724.7442944 2910.39062664 724.42836666 2911.04074383 C705.55520668 2949.43280176 671.13391317 2978.94386246 630.83656979 2993.00851727 C628.22969351 2993.86253643 625.61354923 2994.66471013 622.98256588 2995.44113445 C622.21855465 2995.67147381 621.45454342 2995.90181316 620.66738033 2996.1391325 C603.02359731 3001.03868501 585.19270628 3001.56474034 567.00502682 3001.50958538 C564.49413888 3001.51304876 561.98325247 3001.51781786 559.47236919 3001.52376711 C554.04766256 3001.53362583 548.62307881 3001.53432663 543.19837093 3001.52662563 C535.1312117 3001.5152049 527.06412724 3001.52111712 518.99696839 3001.53025055 C504.5830087 3001.54599404 490.16908908 3001.54470012 475.75512564 3001.53601382 C463.14078992 3001.52844989 450.52646883 3001.52650507 437.91213131 3001.53008175 C436.65419898 3001.53042548 436.65419898 3001.53042548 435.37085387 3001.53077616 C431.96612101 3001.53171026 428.56138815 3001.53266547 425.1566553 3001.53365545 C393.25533362 3001.54282053 361.35403737 3001.534531 329.45271963 3001.51836476 C301.14624851 3001.50412927 272.83981789 3001.50540321 244.53334713 3001.51974773 C212.68821371 3001.53583179 180.84310273 3001.5421704 148.99796581 3001.53291094 C145.59964403 3001.53194887 142.20132224 3001.53101035 138.80300045 3001.53008175 C137.96632343 3001.52984452 137.1296464 3001.52960728 136.26761553 3001.52936286 C123.66506513 3001.52595876 111.06253101 3001.52992572 98.45998287 3001.53752041 C84.12200345 3001.54611814 69.78407014 3001.54391128 55.44609642 3001.52767818 C47.433965 3001.51890484 39.42193357 3001.51824256 31.40980487 3001.5296167 C25.41083161 3001.53718956 19.4119862 3001.52890684 13.41302061 3001.51469298 C10.99874447 3001.51136286 8.58445481 3001.51299897 6.17018747 3001.52032034 C-11.61822684 3001.57009439 -29.12724012 3000.60867791 -46.26743412 2995.44113445 C-47.55943729 2995.05985394 -47.55943729 2995.05985394 -48.87754154 2994.67087078 C-68.34190895 2988.70094041 -86.85591421 2978.97190489 -102.64243412 2966.12863445 C-103.20172611 2965.67617352 -103.7610181 2965.22371258 -104.33725834 2964.7575407 C-122.73735588 2949.77351644 -136.73179615 2932.18073939 -147.64243412 2911.12863445 C-147.96196049 2910.52084148 -148.28148685 2909.91304852 -148.61069584 2909.28683758 C-159.55999396 2888.20099635 -164.81862197 2864.21130169 -164.76548195 2840.55616283 C-164.76663579 2839.29415881 -164.76778964 2838.03215478 -164.76897845 2836.7319082 C-164.77203995 2833.22979943 -164.7688786 2829.72771981 -164.76470031 2826.22561321 C-164.76126034 2822.41537135 -164.76363801 2818.60513238 -164.7652778 2814.79488993 C-164.76735039 2808.11740162 -164.76570972 2801.43992223 -164.7616396 2794.76243496 C-164.75560429 2784.83325706 -164.75530382 2774.90408479 -164.75618158 2764.97490539 C-164.75749554 2748.27240831 -164.75415387 2731.56991518 -164.74816418 2714.86741924 C-164.74224833 2698.32846844 -164.73839847 2681.78951929 -164.73731136 2665.25056744 C-164.73724262 2664.22244804 -164.73717388 2663.19432865 -164.73710306 2662.13505412 C-164.73676473 2656.91381247 -164.73646335 2651.69257081 -164.73617619 2646.47132915 C-164.73407545 2609.48372407 -164.72733719 2572.49612114 -164.71787357 2535.50851727 C-164.70869008 2499.57427259 -164.701606 2463.6400285 -164.69736576 2427.70578289 C-164.69723423 2426.59824561 -164.69710271 2425.49070834 -164.6969672 2424.34960932 C-164.69564868 2413.22732354 -164.69437287 2402.10503776 -164.69312834 2390.98275197 C-164.69059208 2368.32512129 -164.68777083 2345.66749066 -164.68477726 2323.00986004 C-164.68463997 2321.96808558 -164.68450268 2320.92631112 -164.68436123 2319.85296773 C-164.67515967 2250.27818908 -164.65931436 2180.70341162 -164.64243412 2111.12863445 C-163.939603 2110.77943951 -163.23677189 2110.43024456 -162.51264286 2110.07046795 C-155.77738358 2106.72316264 -149.04423187 2103.37166711 -142.31321621 2100.01583767 C-138.85551752 2098.29213182 -135.3971189 2096.56986756 -131.93686771 2094.8512907 C-116.03115295 2086.95012572 -100.24434406 2078.91717417 -84.72123051 2070.2792902 C-81.89419621 2068.71446967 -79.04659294 2067.19171472 -76.19321537 2065.67550945 C-62.08593735 2058.15457825 -48.30589118 2050.15730385 -34.61313725 2041.9137907 C-32.113593 2040.41176346 -29.60715443 2038.922861 -27.09555912 2037.44113445 C-4.91762369 2024.25311789 16.73248707 2009.62556402 37.35756588 1994.12863445 C38.05656002 1993.60543621 38.75555416 1993.08223797 39.47572994 1992.54318523 C49.97776895 1984.66075065 60.24263507 1976.50107718 70.35756588 1968.12863445 C71.23155025 1967.40547039 71.23155025 1967.40547039 72.12319088 1966.66769695 C79.06171153 1960.90681513 85.80476673 1954.97374864 92.40834713 1948.83175945 C94.57389719 1946.82419137 96.79120437 1944.8888408 99.02992916 1942.96335125 C103.37612275 1939.16494673 107.47453673 1935.15621925 111.54897213 1931.0700407 C112.29791241 1930.32205715 113.04685268 1929.5740736 113.81848812 1928.80342388 C115.39027813 1927.23230981 116.96082437 1925.65995053 118.5301733 1924.08639812 C120.91357892 1921.697636 123.30227656 1919.31426 125.69155025 1916.93136883 C127.22767825 1915.39457995 128.76349597 1913.85748085 130.29897213 1912.3200407 C131.00332897 1911.61770809 131.70768581 1910.91537548 132.4333868 1910.19176006 C136.40618618 1906.20039107 140.2067827 1902.11069744 143.88150692 1897.84280682 C145.78898474 1895.6276204 147.76024589 1893.4735956 149.73256588 1891.31613445 C153.57684833 1887.05118137 157.25283493 1882.68002596 160.86147213 1878.21457195 C162.66954744 1875.97923628 164.48869351 1873.7567524 166.32240963 1871.54269695 C174.73128245 1861.35400426 182.63819027 1850.84737222 190.35756588 1840.12863445 C190.88237545 1839.39999187 191.40718502 1838.6713493 191.94789791 1837.92062664 C214.79730412 1806.08663957 234.98491625 1772.72846129 253.35756588 1738.12863445 C253.91411861 1737.08932781 254.47067135 1736.05002117 255.04408932 1734.97922039 C264.64109988 1717.02793822 273.23372793 1698.73246022 281.47017574 1680.12869549 C282.32291571 1678.20673138 283.18075079 1676.28714106 284.04067135 1674.36838055 C299.39831935 1640.03165057 312.275595 1604.73320115 324.35756588 1569.12863445 C324.70431362 1568.10996288 324.70431362 1568.10996288 325.05806637 1567.07071209 C340.79729539 1527.54934402 340.79729539 1527.54934402 340.35756588 1487.12863445 C340.02756588 1486.79863445 339.69756588 1486.46863445 339.35756588 1486.12863445 C329.26505722 1486.12863445 321.43127437 1493.72173725 314.62319088 1500.4372282 C312.26641894 1502.79598684 309.93604181 1505.17949482 307.60756588 1507.56613445 C306.41704342 1508.76818229 305.22564123 1509.96935948 304.03334713 1511.16965008 C298.27404089 1516.98923459 292.6364539 1522.86474621 287.35756588 1529.12863445 C286.39593658 1530.2463473 285.43370959 1531.36354624 284.47084713 1532.48019695 C283.53678956 1533.57094577 282.60320585 1534.66210053 281.67006588 1535.75363445 C280.62845689 1536.97113171 279.58678847 1538.18857813 278.54506588 1539.4059782 C278.01912838 1540.02069988 277.49319088 1540.63542156 276.95131588 1541.26877117 C275.381329 1543.10090353 273.80759157 1544.92973922 272.23256588 1546.7575407 C266.16928744 1553.79898446 260.20995086 1560.90997578 254.35756588 1568.12863445 C252.96275668 1569.83780406 251.56689418 1571.54611456 250.17006588 1573.25363445 C249.43143307 1574.15726727 248.69280025 1575.06090008 247.93178463 1575.9919157 C245.98335356 1578.37038833 244.02527656 1580.74071894 242.06459713 1583.1091032 C236.05865732 1590.369595 230.11593884 1597.66285939 224.33071041 1605.10055828 C220.8286547 1609.58141346 217.17883879 1613.9187005 213.47963619 1618.23727703 C210.18582755 1622.1008982 207.03140253 1626.0546171 203.92006588 1630.06613445 C199.66582038 1635.54513318 195.23888297 1640.84244471 190.69985104 1646.08713055 C186.93032145 1650.44469205 183.26713571 1654.87833236 179.63490963 1659.3512907 C176.61336644 1663.03622589 173.52720637 1666.66431767 170.44106197 1670.29513836 C167.56198745 1673.6883692 164.72545096 1677.11140165 161.92006588 1680.56613445 C157.0264023 1686.5743691 151.97729796 1692.44322579 146.91908932 1698.31271648 C145.35498058 1700.13164093 143.79675512 1701.95543525 142.24037838 1703.7809782 C137.0263182 1709.89347375 131.76802231 1715.95086022 126.36928463 1721.90207195 C124.51021919 1723.95967836 122.6782823 1726.03710209 120.85756588 1728.12863445 C113.65946581 1736.38333637 106.26587678 1744.46523415 98.84096432 1752.51584148 C97.37492368 1754.10976256 95.91693779 1755.71078025 94.45912838 1757.3122282 C86.52394032 1765.97279009 78.27815152 1774.31552038 69.98256588 1782.62863445 C69.41867153 1783.195117 68.85477718 1783.76159954 68.27379513 1784.34524822 C62.66678227 1789.97255159 57.059051 1795.55371432 51.01235104 1800.71457195 C48.68824364 1802.70058996 46.46815065 1804.79400556 44.23256588 1806.87863445 C37.88176478 1812.66083766 31.18764269 1817.92736626 24.35756588 1823.12863445 C23.75927975 1823.58915203 23.16099361 1824.04966961 22.5445776 1824.52414227 C3.02020367 1839.50735367 -20.89434892 1855.67165521 -46.64243412 1853.12863445 C-56.58083514 1851.3977083 -63.74915854 1846.06194173 -70.09946537 1838.3747282 C-75.79808653 1830.07926701 -76.79496276 1820.95599921 -75.64243412 1811.12863445 C-68.46417388 1776.79032224 -36.61760114 1743.57317211 -10.64243412 1721.62863445 C-8.03595803 1719.38305506 -5.55308891 1717.08311933 -3.14243412 1714.62863445 C-0.17508089 1711.61449863 2.9310188 1708.82946113 6.13490963 1706.0700407 C8.68733471 1703.84059384 11.17644102 1701.54862063 13.67006588 1699.25363445 C18.18660425 1695.12956769 22.84889604 1691.2492658 27.60756588 1687.40988445 C30.43856166 1685.06144477 33.15140186 1682.61953543 35.85756588 1680.12863445 C40.32741708 1676.01484537 44.94801481 1672.15776149 49.67397213 1668.3434782 C53.1673506 1665.46029685 56.49584772 1662.41447806 59.84194088 1659.36300945 C62.37086883 1657.11681879 64.96806502 1654.99332228 67.60756588 1652.87863445 C72.69349157 1648.76660943 77.48093025 1644.39429504 82.23549557 1639.90890789 C85.17861276 1637.13495521 88.15426844 1634.42286014 91.21694088 1631.7809782 C95.79209759 1627.79894826 100.11768163 1623.58932526 104.42006588 1619.31613445 C105.18383541 1618.57298992 105.94760494 1617.82984539 106.734519 1617.06418133 C113.61161824 1610.23414522 120.40842076 1602.52903453 123.35756588 1593.12863445 C123.28234294 1589.81882505 122.92617966 1588.67764086 120.54506588 1586.37863445 C115.97851423 1583.76917637 111.35210534 1583.95509144 106.20131588 1583.92550945 C105.39505764 1583.91849514 104.5887994 1583.91148083 103.75810909 1583.90425396 C101.1245386 1583.88663637 98.4911934 1583.88038802 95.85756588 1583.87863445 C94.95697445 1583.87795971 94.05638302 1583.87728497 93.12850094 1583.87658978 C11.70227763 1583.97334705 -63.72533215 1615.24666016 -125.64243412 1667.12863445 C-126.6080225 1667.92454998 -127.57361088 1668.72046551 -128.56845951 1669.54049969 C-138.23194661 1677.5907231 -147.14627486 1686.32534668 -156.01230717 1695.23776531 C-158.46165465 1697.69788453 -160.92158551 1700.14705827 -163.3826685 1702.59543133 C-170.56814308 1709.77518709 -177.66014988 1716.88536944 -183.89804935 1724.91891766 C-185.7872363 1727.31206406 -187.80894539 1729.52868505 -189.89243412 1731.75363445 C-195.68682084 1738.12142402 -200.77414829 1745.0198175 -205.94858646 1751.89084148 C-207.60033516 1754.07301625 -209.26808921 1756.24171321 -210.94321537 1758.4059782 C-238.46907599 1793.99160182 -262.08484413 1832.38542579 -284.62680912 1871.26144695 C-300.53255367 1898.68805842 -318.93614802 1924.33918452 -338.95493412 1948.8903532 C-339.42544193 1949.46745037 -339.89594975 1950.04454754 -340.38071537 1950.6391325 C-343.30257038 1954.08848185 -343.30257038 1954.08848185 -345.76494519 1954.37939479 C-347.09727937 1954.37993368 -347.09727937 1954.37993368 -348.45652938 1954.38048345 C-349.48171373 1954.38574671 -350.50689808 1954.39100997 -351.56314862 1954.39643273 C-352.70031728 1954.39203624 -353.83748595 1954.38763976 -355.00911427 1954.38311005 C-356.21370639 1954.38631652 -357.41829851 1954.389523 -358.65939343 1954.39282665 C-362.02867527 1954.39973855 -365.39773883 1954.39759735 -368.76700887 1954.39177092 C-372.42309558 1954.38762163 -376.07916135 1954.39499066 -379.73524308 1954.40092343 C-386.15202402 1954.40971383 -392.56877305 1954.41098751 -398.98555851 1954.40742016 C-408.52834357 1954.40212891 -418.07109756 1954.4081928 -427.61387924 1954.41650309 C-445.65189616 1954.43177817 -463.68989908 1954.43344424 -481.7279211 1954.43098006 C-495.66456846 1954.42914923 -509.60121122 1954.43090262 -523.53785801 1954.43520451 C-525.53839918 1954.43580691 -527.53894036 1954.4364081 -529.53948154 1954.43700811 C-532.5540517 1954.43791535 -535.56862186 1954.43882402 -538.58319202 1954.43974046 C-566.63254547 1954.44817651 -594.68189718 1954.45250156 -622.73125172 1954.44833374 C-624.31891338 1954.44809918 -624.31891338 1954.44809918 -625.93864901 1954.44785987 C-631.30346147 1954.44705407 -636.66827393 1954.4462083 -642.03308639 1954.44534657 C-643.09858017 1954.44517548 -644.16407395 1954.4450044 -645.26185542 1954.44482812 C-647.41655161 1954.44448147 -649.5712478 1954.44413294 -651.72594399 1954.44378254 C-685.21211519 1954.43843183 -718.69826003 1954.44633454 -752.18442631 1954.46481609 C-789.79836497 1954.48555145 -827.4122873 1954.49625524 -865.026232 1954.49224061 C-869.04105297 1954.49184527 -873.05587395 1954.49148372 -877.07069492 1954.49114323 C-878.55353408 1954.49100713 -878.55353408 1954.49100713 -880.06632958 1954.49086828 C-894.96996748 1954.4897038 -909.87358886 1954.49633976 -924.77722263 1954.50695515 C-941.74549391 1954.51902871 -958.71372889 1954.52054194 -975.68200073 1954.50816498 C-985.16888169 1954.50155413 -994.65567582 1954.5031261 -1004.14254977 1954.51675349 C-1010.49424999 1954.5250374 -1016.84588561 1954.5222496 -1023.19758065 1954.51077823 C-1026.80734902 1954.50456014 -1030.4169488 1954.50282011 -1034.02670702 1954.51464156 C-1053.65138451 1954.57457181 -1073.54412963 1954.2759663 -1092.45493412 1948.37863445 C-1093.31127445 1948.12114422 -1094.16761478 1947.86365398 -1095.04990482 1947.59836102 C-1114.8870029 1941.4663255 -1133.53999133 1932.34641503 -1149.64243412 1919.12863445 C-1150.19350834 1918.68294109 -1150.74458256 1918.23724773 -1151.312356 1917.77804852 C-1184.25545801 1891.02325496 -1205.81436824 1853.05181816 -1211.36523703 1810.81682365 C-1212.32384503 1801.5204791 -1212.05132143 1792.11493397 -1212.02338505 1782.78209209 C-1212.02684714 1780.24746879 -1212.03161539 1777.712847 -1212.03756678 1775.17822832 C-1212.04743726 1769.69549204 -1212.0481174 1764.21287728 -1212.0404253 1758.73013973 C-1212.02901774 1750.5767124 -1212.03491008 1742.42335919 -1212.04405022 1734.26993226 C-1212.059804 1719.70264255 -1212.05849559 1705.13539245 -1212.04981348 1690.56809902 C-1212.0422528 1677.81903639 -1212.04030323 1665.06998823 -1212.04388142 1652.32092381 C-1212.04411057 1651.47370157 -1212.04433973 1650.62647933 -1212.04457583 1649.75358369 C-1212.04550991 1646.31401526 -1212.04646512 1642.87444685 -1212.04745512 1639.43487844 C-1212.05662273 1607.19889903 -1212.0483268 1574.96294477 -1212.03216443 1542.72696924 C-1212.01792995 1514.11873805 -1212.0192015 1485.51054693 -1212.0335474 1456.90231609 C-1212.04962929 1424.72503258 -1212.05597115 1392.54777127 -1212.04671061 1360.37048429 C-1212.04574853 1356.93704316 -1212.04481 1353.50360201 -1212.04388142 1350.07016087 C-1212.04364418 1349.22482451 -1212.04340695 1348.37948816 -1212.04316253 1347.50853556 C-1212.03975741 1334.77156008 -1212.04372733 1322.0346007 -1212.05132008 1309.29762745 C-1212.05991542 1294.8069583 -1212.05771607 1280.31633477 -1212.04147784 1265.82567126 C-1212.03270025 1257.72669057 -1212.03204846 1249.62780881 -1212.04341637 1241.52883078 C-1212.05098295 1235.46689963 -1212.04271516 1229.40509519 -1212.02849264 1223.34317165 C-1212.02515963 1220.90193578 -1212.02680528 1218.46068656 -1212.03412001 1216.01945937 C-1212.08360691 1198.12148904 -1211.00653326 1180.94110096 -1205.57993412 1163.75363445 C-1205.13593266 1162.32772991 -1205.13593266 1162.32772991 -1204.68296146 1160.87301922 C-1199.60400261 1145.23381047 -1192.19712111 1130.50197374 -1182.64243412 1117.12863445 C-1182.25039799 1116.57723797 -1181.85836185 1116.02584148 -1181.45444584 1115.45773602 C-1166.00778428 1094.01878186 -1146.08162242 1077.15508606 -1122.64243412 1065.12863445 C-1121.72494389 1064.6515202 -1121.72494389 1064.6515202 -1120.7889185 1064.16476727 C-1107.05934426 1057.10826751 -1092.60614337 1052.65541579 -1077.45493412 1049.81613445 C-1076.61374027 1049.65669353 -1075.77254642 1049.49725262 -1074.90586185 1049.33298016 C-1061.69465154 1047.04552678 -1048.2067129 1046.97929594 -1034.8366785 1047.00558662 C-1033.30702108 1047.00484479 -1031.77736381 1047.00366388 -1030.24770701 1047.00209013 C-1026.07514164 1046.99904971 -1021.90260102 1047.00217213 -1017.73003751 1047.00636826 C-1013.1791009 1047.00982603 -1008.62816661 1047.0074272 -1004.0772295 1047.00579077 C-996.11166071 1047.00372368 -988.14609942 1047.00534942 -980.1805315 1047.00942898 C-968.33612781 1047.01547817 -956.49172882 1047.01576347 -944.64732386 1047.01488699 C-924.720603 1047.01357473 -904.79388546 1047.01690827 -884.86716557 1047.0229044 C-865.1418236 1047.02882469 -845.41648302 1047.032671 -825.69114017 1047.03375721 C-824.46393676 1047.03382595 -823.23673335 1047.03389469 -821.97234195 1047.03396551 C-815.7398055 1047.03430385 -809.50726905 1047.03460523 -803.27473259 1047.03489239 C-759.14827539 1047.03699189 -715.02181999 1047.04372673 -670.89536381 1047.053195 C-660.20619552 1047.05548594 -649.51702723 1047.05776211 -638.82785892 1047.0599699 C-637.8334031 1047.06017533 -637.8334031 1047.06017533 -636.81885726 1047.0603849 C-605.98151245 1047.06673255 -575.14416748 1047.07045572 -544.30682218 1047.0735047 C-542.30409153 1047.07370276 -540.30136087 1047.07390195 -538.29863021 1047.07410138 C-525.0260918 1047.07542119 -511.75355338 1047.07669573 -498.48101496 1047.07794024 C-471.44416377 1047.08047634 -444.40731261 1047.08329759 -417.37046146 1047.08629131 C-416.12739492 1047.0864286 -414.88432837 1047.08656589 -413.60359314 1047.08670734 C-330.61653938 1047.0959055 -247.62948663 1047.1117504 -164.64243412 1047.12863445 C-164.64290206 1046.35217812 -164.64337 1045.57572178 -164.64385213 1044.77573647 C-164.69469826 960.22977887 -164.74181355 875.6838195 -164.76946354 791.13785076 C-164.7700848 789.243076 -164.7700848 789.243076 -164.7707186 787.31002297 C-164.77947892 760.52539781 -164.78763745 733.7407725 -164.79507315 706.95614695 C-164.79880923 693.50057669 -164.80266414 680.04500647 -164.80663144 666.58943628 C-164.80722919 664.55976279 -164.80782355 662.5300893 -164.80841776 660.50041581 C-164.81759356 629.26047859 -164.82931213 598.02054487 -164.84842777 566.78061199 C-164.84883847 566.10934707 -164.84924917 565.43808215 -164.84967231 564.74647586 C-164.8563091 553.92426723 -164.86316005 543.10205874 -164.87003944 532.27985026 C-164.89882686 486.98587386 -164.91800114 441.69190211 -164.92417909 396.3979161 C-164.92504354 390.09381787 -164.92602045 383.78971966 -164.92706585 377.48562145 C-164.92726812 376.24490078 -164.92747039 375.00418011 -164.92767879 373.72586184 C-164.93122209 353.76442531 -164.94513132 333.80300885 -164.96293022 313.84158049 C-164.98060822 293.7671127 -164.98733397 273.69266478 -164.98293825 253.61818948 C-164.98065886 241.69582452 -164.98671886 229.77353237 -165.00482675 217.85118057 C-165.01610688 209.87854381 -165.01640371 201.90595454 -165.00792956 193.93331446 C-165.0034166 189.39606917 -165.00352712 184.85896123 -165.01708367 180.32173088 C-165.07609771 159.35751815 -165.07082795 138.79222415 -158.95493412 118.50363445 C-158.70147221 117.6437492 -158.44801029 116.78386395 -158.18686771 115.89792156 C-150.53083278 90.91591676 -136.71454113 68.83888083 -118.64243412 50.12863445 C-117.36626225 48.75771648 -117.36626225 48.75771648 -116.06430912 47.3591032 C-86.12810306 16.03364207 -42.89676074 -0.09527846 0 0 Z " fill="#1E94A2" transform="translate(2211.642434120178,988.8713655471802)"/>
<path d="M0 0 C0.66 0.66 1.32 1.32 2 2 C-1.44724025 5.47210935 -4.89786654 8.94080618 -8.3515625 12.40649414 C-9.52403043 13.58396572 -10.69559616 14.76233643 -11.86621094 15.94165039 C-13.55683125 17.64451114 -15.25075693 19.34402508 -16.9453125 21.04296875 C-17.46118927 21.56400681 -17.97706604 22.08504486 -18.50857544 22.62187195 C-21.85127564 25.96507703 -25.32869444 29.02035501 -29 32 C-29.66 31.67 -30.32 31.34 -31 31 C-20.77 20.77 -10.54 10.54 0 0 Z " fill="#6CB9C2" transform="translate(2342,2901)"/>
<path d="M0 0 C0.495 0.99 0.495 0.99 1 2 C-4.44042098 8.64734031 -10.56616643 14.32636002 -17 20 C-17.75023438 20.66515625 -18.50046875 21.3303125 -19.2734375 22.015625 C-23.12733805 25.41178257 -27.037719 28.73111817 -31 32 C-31 29 -31 29 -28.65625 26.546875 C-27.61171328 25.60613586 -26.55909232 24.67432168 -25.5 23.75 C-24.94900635 23.25693359 -24.3980127 22.76386719 -23.83032227 22.25585938 C-20.89500188 19.63676923 -17.91991296 17.06524873 -14.9375 14.5 C-9.68336155 9.95678092 -4.86796252 4.94849867 0 0 Z " fill="#67B6C0" transform="translate(2948,2292)"/>
<path d="M0 0 C0 6.75759049 -8.32487534 12.36864896 -12.85717773 16.92089844 C-15.89511994 19.95705802 -18.94385625 22.98216857 -22 26 C-22.66 25.67 -23.32 25.34 -24 25 C-23.28714844 24.29875 -22.57429688 23.5975 -21.83984375 22.875 C-16.8989285 17.98939673 -12.0847055 13.08156925 -7.5703125 7.79296875 C-5.17568426 5.05880367 -2.6008335 2.53739854 0 0 Z " fill="#6EBAC3" transform="translate(2716,2210)"/>
<path d="M0 0 C0.66 0.33 1.32 0.66 2 1 C-4.93 7.93 -11.86 14.86 -19 22 C-19.99 21.67 -20.98 21.34 -22 21 C-17.83035943 16.71308829 -13.53043584 12.67953556 -9 8.77734375 C-5.86211898 5.98879714 -2.92589677 3.00818762 0 0 Z " fill="#70BBC3" transform="translate(2739,2188)"/>
<path d="M0 0 C0.99 0.33 1.98 0.66 3 1 C1.25904321 2.82200133 -0.49177132 4.63229575 -2.25 6.4375 C-2.98669922 7.2119043 -2.98669922 7.2119043 -3.73828125 8.00195312 C-8.30164195 12.65658104 -8.30164195 12.65658104 -12 13 C-8.19524578 8.43969176 -4.25030379 4.14910608 0 0 Z " fill="#75BDC5" transform="translate(2197,2714)"/>
<path d="M0 0 C0.99 0.66 1.98 1.32 3 2 C2.319375 2.66 1.63875 3.32 0.9375 4 C-2.56725347 7.49468234 -5.77221788 11.25130779 -9 15 C-9.66 14.67 -10.32 14.34 -11 14 C-7.37 9.38 -3.74 4.76 0 0 Z " fill="#5DB2BC" transform="translate(2582,2363)"/>
<path d="M0 0 C0.66 0.66 1.32 1.32 2 2 C-1.96 6.29 -5.92 10.58 -10 15 C-10.66 14.67 -11.32 14.34 -12 14 C-11.38511719 13.32453125 -10.77023438 12.6490625 -10.13671875 11.953125 C-9.32847656 11.06109375 -8.52023438 10.1690625 -7.6875 9.25 C-6.88699219 8.36828125 -6.08648438 7.4865625 -5.26171875 6.578125 C-3.39083089 4.44550672 -1.65915714 2.29812057 0 0 Z " fill="#66B6BF" transform="translate(2655,2276)"/>
<path d="M0 0 C0.66 0.33 1.32 0.66 2 1 C-1.3 4.3 -4.6 7.6 -8 11 C-8.99 10.67 -9.98 10.34 -11 10 C-5.555 5.05 -5.555 5.05 0 0 Z " fill="#70BBC3" transform="translate(2231,2683)"/>
<path d="M0 0 C0 3 0 3 -1.53125 4.82421875 C-2.1809375 5.43910156 -2.830625 6.05398437 -3.5 6.6875 C-4.1496875 7.31011719 -4.799375 7.93273438 -5.46875 8.57421875 C-5.9740625 9.04472656 -6.479375 9.51523438 -7 10 C-7.99 9.67 -8.98 9.34 -10 9 C-6.7 6.03 -3.4 3.06 0 0 Z " fill="#6CB9C2" transform="translate(2253,2664)"/>
<path d="M0 0 C0.66 0.33 1.32 0.66 2 1 C-0.97 3.97 -3.94 6.94 -7 10 C-7.99 9.67 -8.98 9.34 -10 9 C-6.7 6.03 -3.4 3.06 0 0 Z " fill="#73BCC5" transform="translate(2282,2639)"/>
<path d="M0 0 C0.66 0 1.32 0 2 0 C0.34908222 4.29238623 -2.73754566 6.8793915 -6 10 C-6.66 9.67 -7.32 9.34 -8 9 C-6.71520959 7.49410612 -5.42195918 5.99542625 -4.125 4.5 C-3.04605469 3.24703125 -3.04605469 3.24703125 -1.9453125 1.96875 C-1.30335938 1.3190625 -0.66140625 0.669375 0 0 Z " fill="#60B4BC" transform="translate(2509,2452)"/>
<path d="M0 0 C0.33 0.99 0.66 1.98 1 3 C-1.31 5.31 -3.62 7.62 -6 10 C-6.66 9.67 -7.32 9.34 -8 9 C-5.36 6.03 -2.72 3.06 0 0 Z " fill="#63B5BE" transform="translate(2672,2257)"/>
<path d="M0 0 C0.33 0.99 0.66 1.98 1 3 C-1.64 5.64 -4.28 8.28 -7 11 C-7.66 10.67 -8.32 10.34 -9 10 C-6.03 6.7 -3.06 3.4 0 0 Z " fill="#6BB8C2" transform="translate(2689,2238)"/>
<path d="M0 0 C0 3 0 3 -1.3125 4.60546875 C-1.869375 5.12753906 -2.42625 5.64960938 -3 6.1875 C-3.556875 6.71730469 -4.11375 7.24710938 -4.6875 7.79296875 C-5.120625 8.19128906 -5.55375 8.58960937 -6 9 C-6.99 8.67 -7.98 8.34 -9 8 C-6.03 5.36 -3.06 2.72 0 0 Z " fill="#68B7C0" transform="translate(2219,2694)"/>
<path d="M0 0 C0.66 0.33 1.32 0.66 2 1 C-0.31 3.31 -2.62 5.62 -5 8 C-5.66 7.34 -6.32 6.68 -7 6 C-4.69 4.02 -2.38 2.04 0 0 Z " fill="#5CB1BB" transform="translate(2923,2316)"/>
<path d="M0 0 C0.66 0.66 1.32 1.32 2 2 C0.02 3.98 -1.96 5.96 -4 8 C-4.66 7.67 -5.32 7.34 -6 7 C-4.02 4.69 -2.04 2.38 0 0 Z " fill="#68B7C0" transform="translate(2622,2315)"/>
</svg>
