<?xml version="1.0" encoding="UTF-8"?>
<svg version="1.1" xmlns="http://www.w3.org/2000/svg" width="683" height="158">
<path d="M0 0 C0.74093399 -0.00902847 1.48186798 -0.01805695 2.24525452 -0.02735901 C3.81116702 -0.04185486 5.37714 -0.05074661 6.94311523 -0.05444336 C9.33616234 -0.06634907 11.72663711 -0.11554087 14.11914062 -0.16601562 C15.64191452 -0.17547932 17.16470422 -0.18271462 18.6875 -0.1875 C19.40115219 -0.20703232 20.11480438 -0.22656464 20.8500824 -0.24668884 C24.35243998 -0.21495225 26.12602953 0.14010146 28.8684082 2.36962891 C30.87339958 6.27293278 30.91358788 9.67189325 30.80078125 13.953125 C30.79512146 14.76730392 30.78946167 15.58148285 30.78363037 16.42033386 C30.76132399 19.00869728 30.7111407 21.59565215 30.66015625 24.18359375 C30.64008372 25.94333931 30.62183427 27.70310668 30.60546875 29.46289062 C30.56147832 33.7661638 30.49249252 38.06839035 30.41015625 42.37109375 C28.43015625 42.70109375 26.45015625 43.03109375 24.41015625 43.37109375 C24.41015625 44.03109375 24.41015625 44.69109375 24.41015625 45.37109375 C23.46140625 45.59796875 22.51265625 45.82484375 21.53515625 46.05859375 C18.21971027 47.04738191 18.21971027 47.04738191 17.16015625 49.93359375 C16.78890625 51.14015625 16.78890625 51.14015625 16.41015625 52.37109375 C15.42015625 52.86609375 15.42015625 52.86609375 14.41015625 53.37109375 C13.2879077 55.25122481 13.2879077 55.25122481 12.28515625 57.43359375 C11.93195313 58.16707031 11.57875 58.90054688 11.21484375 59.65625 C10.94929688 60.22214844 10.68375 60.78804687 10.41015625 61.37109375 C13.29382505 59.01172837 16.06109165 56.72985459 18.66015625 54.05859375 C20.41015625 52.37109375 20.41015625 52.37109375 22.41015625 52.37109375 C22.41015625 51.71109375 22.41015625 51.05109375 22.41015625 50.37109375 C24.39015625 50.86609375 24.39015625 50.86609375 26.41015625 51.37109375 C26.78515625 53.55859375 26.78515625 53.55859375 26.41015625 56.37109375 C24.58145951 58.45942028 22.71963066 59.75446166 20.41015625 61.37109375 C19.75015625 61.37109375 19.09015625 61.37109375 18.41015625 61.37109375 C18.41015625 62.03109375 18.41015625 62.69109375 18.41015625 63.37109375 C19.40015625 63.37109375 20.39015625 63.37109375 21.41015625 63.37109375 C21.41015625 62.71109375 21.41015625 62.05109375 21.41015625 61.37109375 C23.72015625 60.71109375 26.03015625 60.05109375 28.41015625 59.37109375 C28.41015625 58.71109375 28.41015625 58.05109375 28.41015625 57.37109375 C29.07015625 57.37109375 29.73015625 57.37109375 30.41015625 57.37109375 C30.74015625 56.05109375 31.07015625 54.73109375 31.41015625 53.37109375 C32.07015625 53.37109375 32.73015625 53.37109375 33.41015625 53.37109375 C33.59578125 52.47390625 33.59578125 52.47390625 33.78515625 51.55859375 C34.41015625 49.37109375 34.41015625 49.37109375 36.41015625 46.37109375 C39.08245678 46.09161246 41.52000879 45.99893157 44.19140625 46.04296875 C44.96069458 46.04484192 45.72998291 46.04671509 46.52258301 46.04864502 C48.15002777 46.05537136 49.7774562 46.06929748 51.40478516 46.08984375 C53.90021738 46.12096978 56.395018 46.13081082 58.890625 46.13671875 C60.47005981 46.14588987 62.04948817 46.15626599 63.62890625 46.16796875 C64.75238464 46.17434357 64.75238464 46.17434357 65.89855957 46.18084717 C71.17574977 46.25389051 71.17574977 46.25389051 73.41015625 47.37109375 C73.41015625 48.03109375 73.41015625 48.69109375 73.41015625 49.37109375 C74.40015625 49.70109375 75.39015625 50.03109375 76.41015625 50.37109375 C76.5091576 55.13991251 76.58168553 59.90813105 76.62988281 64.67773438 C76.64997769 66.29958518 76.67725879 67.92136372 76.71191406 69.54296875 C76.76052895 71.87648355 76.78314514 74.20903932 76.80078125 76.54296875 C76.82142639 77.2660321 76.84207153 77.98909546 76.86334229 78.73406982 C76.86475252 81.91000632 76.58433155 84.06998522 74.984375 86.8359375 C71.02742338 89.19569772 67.35386762 88.86611308 62.83203125 88.76171875 C62.01041504 88.75769043 61.18879883 88.75366211 60.34228516 88.74951172 C57.28134744 88.72862758 54.22072877 88.67278179 51.16015625 88.62109375 C44.31265625 88.53859375 37.46515625 88.45609375 30.41015625 88.37109375 C30.41015625 102.23109375 30.41015625 116.09109375 30.41015625 130.37109375 C29.75015625 130.37109375 29.09015625 130.37109375 28.41015625 130.37109375 C27.75015625 131.69109375 27.09015625 133.01109375 26.41015625 134.37109375 C21.64133749 134.4700951 16.87311895 134.54262303 12.10351562 134.59082031 C10.48166482 134.61091519 8.85988628 134.63819629 7.23828125 134.67285156 C4.90476645 134.72146645 2.57221068 134.74408264 0.23828125 134.76171875 C-0.4847821 134.78236389 -1.20784546 134.80300903 -1.95281982 134.82427979 C-5.18176761 134.82571356 -7.28053436 134.56102756 -10.05249023 132.85888672 C-12.21455445 129.36016759 -12.10735171 126.16031365 -12.015625 122.17578125 C-12.01233688 121.38712677 -12.00904877 120.59847229 -12.00566101 119.78591919 C-11.9952585 118.12330846 -11.97533944 116.46073355 -11.9465332 114.79833984 C-11.90237971 112.24817042 -11.88508451 109.69894222 -11.87304688 107.1484375 C-11.85962559 105.53253844 -11.84470338 103.916651 -11.828125 102.30078125 C-11.82073807 101.53619598 -11.81335114 100.77161072 -11.80574036 99.9838562 C-11.70823666 94.60787957 -11.70823666 94.60787957 -10.58984375 92.37109375 C-7.52734375 91.74609375 -7.52734375 91.74609375 -4.58984375 91.37109375 C-4.09484375 89.88609375 -4.09484375 89.88609375 -3.58984375 88.37109375 C-2.59984375 88.04109375 -1.60984375 87.71109375 -0.58984375 87.37109375 C1.77522468 85.369882 2.39948845 84.40309714 3.41015625 81.37109375 C4.07015625 81.04109375 4.73015625 80.71109375 5.41015625 80.37109375 C6.13709529 78.39220414 6.80831876 76.39154817 7.41015625 74.37109375 C8.07015625 74.37109375 8.73015625 74.37109375 9.41015625 74.37109375 C9.41015625 73.38109375 9.41015625 72.39109375 9.41015625 71.37109375 C8.75015625 71.37109375 8.09015625 71.37109375 7.41015625 71.37109375 C6.75015625 73.02109375 6.09015625 74.67109375 5.41015625 76.37109375 C4.75015625 76.37109375 4.09015625 76.37109375 3.41015625 76.37109375 C3.30703125 76.98984375 3.20390625 77.60859375 3.09765625 78.24609375 C2.41015625 80.37109375 2.41015625 80.37109375 -0.58984375 82.37109375 C-1.57984375 82.37109375 -2.56984375 82.37109375 -3.58984375 82.37109375 C-3.58984375 83.03109375 -3.58984375 83.69109375 -3.58984375 84.37109375 C-4.90984375 84.37109375 -6.22984375 84.37109375 -7.58984375 84.37109375 C-7.58984375 82.39109375 -7.58984375 80.41109375 -7.58984375 78.37109375 C-6.59984375 78.04109375 -5.60984375 77.71109375 -4.58984375 77.37109375 C-4.09484375 75.88609375 -4.09484375 75.88609375 -3.58984375 74.37109375 C-6.5371191 74.47278536 -6.5371191 74.47278536 -9.58984375 75.37109375 C-11.04275648 77.8336506 -11.04275648 77.8336506 -11.58984375 80.37109375 C-12.24984375 80.37109375 -12.90984375 80.37109375 -13.58984375 80.37109375 C-14.08484375 82.35109375 -14.08484375 82.35109375 -14.58984375 84.37109375 C-15.24984375 84.37109375 -15.90984375 84.37109375 -16.58984375 84.37109375 C-17.08484375 86.35109375 -17.08484375 86.35109375 -17.58984375 88.37109375 C-22.64349667 88.47006556 -27.69658399 88.54260978 -32.75097656 88.59082031 C-34.46982654 88.61092003 -36.18860827 88.63820464 -37.90722656 88.67285156 C-40.37972864 88.72144409 -42.85132585 88.7440781 -45.32421875 88.76171875 C-46.47443512 88.79268646 -46.47443512 88.79268646 -47.64788818 88.82427979 C-50.99132997 88.82568188 -53.21018595 88.60637726 -56.07763672 86.8293457 C-58.14543533 83.46792106 -58.12785402 80.47579985 -58.05078125 76.6484375 C-58.04986481 75.90654678 -58.04894836 75.16465607 -58.04800415 74.40028381 C-58.04197586 72.83604512 -58.02625277 71.27181756 -58.00146484 69.70776367 C-57.96491417 67.31320711 -57.9604459 64.92019728 -57.9609375 62.52539062 C-57.95110724 61.00389288 -57.93945063 59.4824056 -57.92578125 57.9609375 C-57.9235556 57.24526108 -57.92132996 56.52958466 -57.91903687 55.79222107 C-57.84873611 52.11419299 -57.68459931 50.51322709 -55.58984375 47.37109375 C-52.85877864 46.46073871 -51.29091136 46.24893662 -48.4855957 46.25756836 C-47.66497147 46.25764389 -46.84434723 46.25771942 -45.99885559 46.25779724 C-44.67684395 46.26553917 -44.67684395 46.26553917 -43.328125 46.2734375 C-41.9694355 46.27555992 -41.9694355 46.27555992 -40.58329773 46.27772522 C-37.68961284 46.28332374 -34.79600526 46.29587594 -31.90234375 46.30859375 C-29.94075633 46.31360894 -27.97916769 46.31817182 -26.01757812 46.32226562 C-21.20830354 46.33329268 -16.39908675 46.35055628 -11.58984375 46.37109375 C-11.59508057 45.14479248 -11.60031738 43.91849121 -11.60571289 42.6550293 C-11.62379936 38.10962655 -11.63528915 33.56422699 -11.64477539 29.01879883 C-11.64980725 27.05069443 -11.65663333 25.08259378 -11.6652832 23.11450195 C-11.67739892 20.28726274 -11.68308351 17.46007291 -11.6875 14.6328125 C-11.69266129 13.75147141 -11.69782257 12.87013031 -11.70314026 11.96208191 C-11.70321579 11.14145767 -11.70329132 10.32083344 -11.70336914 9.4753418 C-11.70558975 8.75364304 -11.70781036 8.03194427 -11.71009827 7.28837585 C-11.58984375 5.37109375 -11.58984375 5.37109375 -10.58984375 2.37109375 C-6.95900585 -0.04946485 -4.20378079 0.03149974 0 0 Z M9.41015625 61.37109375 C10.41015625 64.37109375 10.41015625 64.37109375 10.41015625 64.37109375 Z M7.41015625 64.37109375 C7.74015625 65.36109375 8.07015625 66.35109375 8.41015625 67.37109375 C8.74015625 66.38109375 9.07015625 65.39109375 9.41015625 64.37109375 C8.75015625 64.37109375 8.09015625 64.37109375 7.41015625 64.37109375 Z M-0.58984375 71.37109375 C-0.91984375 72.03109375 -1.24984375 72.69109375 -1.58984375 73.37109375 C-0.59984375 73.04109375 0.39015625 72.71109375 1.41015625 72.37109375 C0.75015625 72.04109375 0.09015625 71.71109375 -0.58984375 71.37109375 Z " fill="#2094A2" transform="translate(78.58984375,11.62890625)"/>
<path d="M0 0 C2.40704922 2.14135061 4.12971256 4.65946613 5.9375 7.3125 C6.70465332 8.38661133 6.70465332 8.38661133 7.48730469 9.48242188 C9.01667764 11.63871293 10.51314919 13.81422371 12 16 C12.43650879 16.63728027 12.87301758 17.27456055 13.32275391 17.93115234 C15.5937626 21.25865415 17.81893131 24.61292863 20 28 C25.52113396 21.46532454 30.68899508 14.80949547 35.54833984 7.77294922 C37.7929121 4.5539176 39.95389709 1.49841976 43 -1 C46.625 -0.9375 46.625 -0.9375 50 0 C52.17040435 3.25560653 52.2550965 4.19158401 52.2746582 7.95874023 C52.28895622 9.47062172 52.28895622 9.47062172 52.30354309 11.01304626 C52.30263168 12.10057693 52.30172028 13.1881076 52.30078125 14.30859375 C52.30506638 15.4268605 52.3093515 16.54512726 52.31376648 17.69728088 C52.31951261 20.06356122 52.32000797 22.42985923 52.31567383 24.79614258 C52.31251548 28.41973976 52.33596488 32.04251953 52.36132812 35.66601562 C52.36360121 37.96354063 52.36430457 40.26106784 52.36328125 42.55859375 C52.372491 43.64410019 52.38170074 44.72960663 52.39118958 45.8480072 C52.38496078 46.85908035 52.37873199 47.8701535 52.37231445 48.91186523 C52.37294388 49.7999437 52.3735733 50.68802216 52.3742218 51.60301208 C51.9168283 54.53273634 51.07741559 55.90082217 49 58 C45.5 58.5 45.5 58.5 42 58 C39.47683273 55.63204276 39.02027411 54.15472893 38.56762695 50.70019531 C38.54144287 49.42241211 38.51525879 48.14462891 38.48828125 46.828125 C38.47033005 46.1457074 38.45237885 45.46328979 38.43388367 44.76019287 C38.37989617 42.5901906 38.34592417 40.42040675 38.3125 38.25 C38.27931648 36.77470926 38.24482585 35.29944731 38.20898438 33.82421875 C38.12417842 30.21635573 38.05731163 26.60841638 38 23 C37.65743164 23.49927002 37.31486328 23.99854004 36.96191406 24.51293945 C35.39796501 26.7841504 33.8241209 29.04832843 32.25 31.3125 C31.71117187 32.09818359 31.17234375 32.88386719 30.6171875 33.69335938 C30.08867188 34.45068359 29.56015625 35.20800781 29.015625 35.98828125 C28.53383789 36.68477783 28.05205078 37.38127441 27.55566406 38.09887695 C25.86780116 40.16155561 24.25231307 41.57784962 22 43 C19.10546875 43.140625 19.10546875 43.140625 16 42 C13.75260164 39.817885 12.05747493 37.34183689 10.3125 34.75 C9.84005859 34.08097656 9.36761719 33.41195312 8.88085938 32.72265625 C6.43467235 29.23006384 4.175841 25.66815105 2 22 C1.98018066 22.98395752 1.96036133 23.96791504 1.93994141 24.98168945 C1.86386013 28.63282839 1.775147 32.28357009 1.68261719 35.93432617 C1.64433779 37.51432451 1.60948303 39.09440969 1.578125 40.67456055 C1.53245124 42.94611645 1.47446216 45.21707509 1.4140625 47.48828125 C1.39673569 48.54780754 1.39673569 48.54780754 1.37905884 49.6287384 C1.26928952 53.27741393 1.07857636 54.88213546 -1 58 C-4.4375 58.5 -4.4375 58.5 -8 58 C-12.18635416 53.46974313 -11.41484582 47.71984887 -11.36328125 41.93359375 C-11.36377975 40.86254898 -11.36427826 39.79150421 -11.36479187 38.68800354 C-11.36245501 36.42780702 -11.35274944 34.16760771 -11.33618164 31.9074707 C-11.3125617 28.44654101 -11.31562737 24.9863806 -11.32226562 21.52539062 C-11.31668953 19.3281204 -11.30958009 17.13085343 -11.30078125 14.93359375 C-11.30169266 13.89810898 -11.30260406 12.86262421 -11.30354309 11.79576111 C-11.29401108 10.83118484 -11.28447906 9.86660858 -11.2746582 8.87280273 C-11.26774712 7.60302834 -11.26774712 7.60302834 -11.26069641 6.30760193 C-10.97388854 3.76886964 -10.35805898 2.15501587 -9 0 C-5.67741759 -1.66129121 -3.52807089 -0.96019447 0 0 Z " fill="#FEFEFE" transform="translate(548,50)"/>
<path d="M0 0 C2.15749784 3.23624676 2.28360488 4.34394066 2.4140625 8.10546875 C2.45273437 9.08837891 2.49140625 10.07128906 2.53125 11.08398438 C2.5621875 12.10814453 2.593125 13.13230469 2.625 14.1875 C2.66367187 15.22326172 2.70234375 16.25902344 2.7421875 17.32617188 C2.83648296 19.88393622 2.92208202 22.44169287 3 25 C3.44279297 24.58226318 3.88558594 24.16452637 4.34179688 23.73413086 C6.39314917 21.80044849 8.44656317 19.86896851 10.5 17.9375 C11.19609375 17.28072266 11.8921875 16.62394531 12.609375 15.94726562 C16.76536619 12.04140354 20.97958312 8.222318 25.29248047 4.49023438 C26.76111363 3.20848762 28.19656798 1.88890116 29.625 0.5625 C32.68070493 -1.44783219 34.41356558 -1.62372772 38 -1 C40 0.6875 40 0.6875 41 3 C39.8055237 7.75369284 36.82281971 10.3890326 33.25 13.5 C32.48042969 14.19029297 32.48042969 14.19029297 31.6953125 14.89453125 C28.1990205 18.01308316 24.61123298 21.01586736 21 24 C22.35977255 28.03660228 24.12543874 30.50111869 27.0625 33.5625 C30.57048591 37.37280015 33.93742604 41.23319067 37.125 45.3125 C37.89070313 46.27800781 38.65640625 47.24351563 39.4453125 48.23828125 C41 51 41 51 40.8671875 53.73046875 C40 56 40 56 38 58 C34.7109375 58.45703125 34.7109375 58.45703125 31 58 C28.82409135 56.24394978 27.35214458 54.80894031 25.625 52.6875 C25.1609375 52.1522168 24.696875 51.61693359 24.21875 51.06542969 C20.29103696 46.49651212 16.54523032 41.76107181 12.875 36.984375 C12.25625 36.32953125 11.6375 35.6746875 11 35 C7.88012332 34.65192708 7.88012332 34.65192708 5.9375 37 C5.298125 37.66 4.65875 38.32 4 39 C3.34 39 2.68 39 2 39 C2.03480469 40.12019531 2.06960938 41.24039063 2.10546875 42.39453125 C2.13360839 43.86717251 2.16090837 45.33982998 2.1875 46.8125 C2.21263672 47.55048828 2.23777344 48.28847656 2.26367188 49.04882812 C2.33744074 54.48313458 2.33744074 54.48313458 0.70703125 56.98046875 C-2.27176137 58.75956457 -4.64810361 58.47884234 -8 58 C-12.18311704 53.46282037 -11.4148803 47.72371829 -11.36328125 41.93359375 C-11.36377975 40.86254898 -11.36427826 39.79150421 -11.36479187 38.68800354 C-11.36245501 36.42780702 -11.35274944 34.16760771 -11.33618164 31.9074707 C-11.3125617 28.44654101 -11.31562737 24.9863806 -11.32226562 21.52539062 C-11.31668953 19.3281204 -11.30958009 17.13085343 -11.30078125 14.93359375 C-11.30169266 13.89810898 -11.30260406 12.86262421 -11.30354309 11.79576111 C-11.29401108 10.83118484 -11.28447906 9.86660858 -11.2746582 8.87280273 C-11.26774712 7.60302834 -11.26774712 7.60302834 -11.26069641 6.30760193 C-10.97111601 3.74432809 -10.42838063 2.14555997 -9 0 C-5.46474216 -1.17841928 -3.5797952 -0.91399027 0 0 Z " fill="#FEFEFE" transform="translate(425,50)"/>
<path d="M0 0 C1.375 2.125 1.375 2.125 1.125 5.375 C0.8775 6.2825 0.63 7.19 0.375 8.125 C-4.37996084 9.36542457 -6.93120245 9.21640174 -11.4375 7.1875 C-17.66060109 4.45540684 -23.33476698 3.87471145 -29.75 6.3125 C-31.83665951 7.99779483 -31.83665951 7.99779483 -32.1875 10.625 C-31.8560713 13.22271885 -31.8560713 13.22271885 -29.87231445 14.70336914 C-27.55003163 16.17242432 -25.77664367 16.78904677 -23.10546875 17.37109375 C-22.24759766 17.56896484 -21.38972656 17.76683594 -20.50585938 17.97070312 C-18.72228381 18.36259826 -16.9384325 18.75324067 -15.15429688 19.14257812 C-8.70703761 20.63263281 -3.02516162 22.13584167 1.28515625 27.50390625 C3.27242667 32.28332723 2.9876701 37.05154088 2.375 42.125 C-0.31079121 47.90978107 -4.48490622 50.86896249 -10.33984375 53.2109375 C-20.22447753 55.96123988 -31.58840523 55.00063197 -40.625 50.125 C-43.06135668 48.55839646 -43.96676832 47.61234752 -45.625 45.125 C-45.5625 41.875 -45.5625 41.875 -44.625 39.125 C-41.74563188 37.68531594 -39.83492381 37.822177 -36.625 38.125 C-34.17052583 39.29127283 -31.95053964 40.70383689 -29.625 42.125 C-24.55498484 44.08758651 -18.71733648 43.77930023 -13.6875 41.875 C-10.625 40.42780087 -10.625 40.42780087 -9.375 38.25 C-9.79780185 34.65618428 -11.8974923 33.36457518 -14.625 31.125 C-17.506306 30.10315393 -20.42698907 29.62216561 -23.4375 29.125 C-30.93575936 27.67716384 -36.9762228 26.26144193 -42.26171875 20.26953125 C-44.65603804 16.50310922 -44.72646527 12.50829955 -44.625 8.125 C-43.33547308 3.49787399 -41.52353365 0.11693126 -37.60546875 -2.8046875 C-25.43335112 -9.38291281 -11.04318717 -7.88799084 0 0 Z " fill="#FEFEFE" transform="translate(399.625,54.875)"/>
<path d="M0 0 C2.52500377 3.78750566 2.27905718 6.82480785 2.2734375 11.2109375 C2.29372835 12.86459008 2.31457917 14.51823586 2.3359375 16.171875 C2.35852608 18.7744724 2.37500405 21.3768013 2.38085938 23.97949219 C2.39039726 26.49463241 2.42418995 29.00856798 2.4609375 31.5234375 C2.45589203 32.29754974 2.45084656 33.07166199 2.44564819 33.86923218 C2.53649036 38.87396653 3.39941743 41.49936421 7 45 C10.97083957 47.25371975 14.49056654 47.39556434 19 47 C22.59470303 45.54829301 25.5695997 44.06997933 28 41 C29.23819416 37.28541751 29.17387866 33.80797589 29.2109375 29.9375 C29.2389949 28.32030218 29.26765928 26.7031148 29.296875 25.0859375 C29.33820744 22.53808766 29.37509861 19.99043513 29.40136719 17.44238281 C29.42892636 14.9820143 29.47478165 12.5225295 29.5234375 10.0625 C29.52669037 9.29993896 29.52994324 8.53737793 29.53329468 7.75170898 C29.65577423 2.49633123 29.65577423 2.49633123 31.37353516 0.01953125 C33.73005737 -1.45762827 35.27666182 -1.40850073 38 -1 C39.63000488 0.28831482 39.63000488 0.28831482 41 2 C41.32331928 4.89652717 41.46802566 7.57328193 41.46875 10.47265625 C41.48017029 11.72918251 41.48017029 11.72918251 41.49182129 13.01109314 C41.50263071 14.78723169 41.50547197 16.56343385 41.50097656 18.33959961 C41.50001203 21.0289478 41.54145561 23.71536658 41.5859375 26.40429688 C41.70464423 43.51391291 41.70464423 43.51391291 36 51 C30.12434165 56.87565835 23.34406196 58.96271076 15.25 59.25 C6.84434042 59.11281564 0.78373407 56.68550182 -5.33984375 50.890625 C-12.34953575 42.90782282 -11.18645481 31.42055548 -11.18530273 21.44702148 C-11.18750506 19.30758214 -11.20575077 17.16864639 -11.22460938 15.02929688 C-11.22754115 13.66146008 -11.22952739 12.29362086 -11.23046875 10.92578125 C-11.23457764 9.69255127 -11.23868652 8.45932129 -11.24291992 7.1887207 C-11.01242911 4.16315242 -10.69206743 2.48286438 -9 0 C-5.85135005 -1.57432497 -3.35512575 -0.71895552 0 0 Z " fill="#FEFEFE" transform="translate(302,50)"/>
<path d="M0 0 C3.1875 0.3125 3.1875 0.3125 5.125 1.79418945 C7.92952237 5.21850861 9.57187409 8.89596546 11.375 12.91796875 C11.75938232 13.75660965 12.14376465 14.59525055 12.53979492 15.45930481 C13.76410029 18.13579483 14.97589311 20.81774138 16.1875 23.5 C17.00179532 25.28487444 17.81689154 27.06938373 18.6328125 28.85351562 C20.48445105 32.90919149 22.33161385 36.96676696 24.16040039 41.0328064 C24.87583627 42.62074839 25.59680333 44.20620505 26.32202148 45.78970337 C26.68497314 46.58911346 27.0479248 47.38852356 27.421875 48.2121582 C27.75026367 48.93047318 28.07865234 49.64878815 28.41699219 50.38887024 C29.40989081 52.8677151 29.728438 54.68508687 29.1875 57.3125 C28 59.125 28 59.125 26.1875 60.3125 C23.75 60.8125 23.75 60.8125 21.1875 60.3125 C17.24828136 56.49265162 15.72552334 52.38854667 13.1875 47.3125 C4.6075 47.3125 -3.9725 47.3125 -12.8125 47.3125 C-13.658125 49.271875 -14.50375 51.23125 -15.375 53.25 C-18.28542336 59.11923857 -18.28542336 59.11923857 -22.5625 60.6875 C-25.8125 60.3125 -25.8125 60.3125 -27.8125 58.3125 C-28.11788368 52.20102524 -26.11846639 46.86604905 -23.4609375 41.48828125 C-22.95525742 40.4251899 -22.95525742 40.4251899 -22.43936157 39.34062195 C-21.36780332 37.09588178 -20.27801549 34.86058101 -19.1875 32.625 C-18.47926908 31.14705866 -17.77222927 29.66854592 -17.06640625 28.18945312 C-3.77310589 0.41923399 -3.77310589 0.41923399 0 0 Z M-0.8125 19.3125 C-1.98383058 21.76870851 -3.14971722 24.22724917 -4.3125 26.6875 C-4.64636719 27.38617188 -4.98023438 28.08484375 -5.32421875 28.8046875 C-7.16459398 32.40077999 -7.16459398 32.40077999 -7.8125 36.3125 C-2.5325 36.3125 2.7475 36.3125 8.1875 36.3125 C6.79613728 32.13841183 5.39568227 28.39331438 3.5625 24.4375 C3.11648438 23.47070312 2.67046875 22.50390625 2.2109375 21.5078125 C1.87320313 20.78335938 1.53546875 20.05890625 1.1875 19.3125 C0.5275 19.3125 -0.1325 19.3125 -0.8125 19.3125 Z " fill="#FEFEFE" transform="translate(637.8125,48.6875)"/>
<path d="M0 0 C3.1875 0.3125 3.1875 0.3125 5.125 1.79418945 C7.92952237 5.21850861 9.57187409 8.89596546 11.375 12.91796875 C11.75938232 13.75660965 12.14376465 14.59525055 12.53979492 15.45930481 C13.76410029 18.13579483 14.97589311 20.81774138 16.1875 23.5 C17.00179532 25.28487444 17.81689154 27.06938373 18.6328125 28.85351562 C20.48445105 32.90919149 22.33161385 36.96676696 24.16040039 41.0328064 C24.87583627 42.62074839 25.59680333 44.20620505 26.32202148 45.78970337 C26.68497314 46.58911346 27.0479248 47.38852356 27.421875 48.2121582 C27.75026367 48.93047318 28.07865234 49.64878815 28.41699219 50.38887024 C29.40989081 52.8677151 29.728438 54.68508687 29.1875 57.3125 C28 59.125 28 59.125 26.1875 60.3125 C23.75 60.8125 23.75 60.8125 21.1875 60.3125 C17.24828136 56.49265162 15.72552334 52.38854667 13.1875 47.3125 C4.6075 47.3125 -3.9725 47.3125 -12.8125 47.3125 C-13.658125 49.271875 -14.50375 51.23125 -15.375 53.25 C-18.28542336 59.11923857 -18.28542336 59.11923857 -22.5625 60.6875 C-25.8125 60.3125 -25.8125 60.3125 -27.8125 58.3125 C-28.11788368 52.20102524 -26.11846639 46.86604905 -23.4609375 41.48828125 C-22.95525742 40.4251899 -22.95525742 40.4251899 -22.43936157 39.34062195 C-21.36780332 37.09588178 -20.27801549 34.86058101 -19.1875 32.625 C-18.47926908 31.14705866 -17.77222927 29.66854592 -17.06640625 28.18945312 C-3.77310589 0.41923399 -3.77310589 0.41923399 0 0 Z M-0.8125 19.3125 C-1.98383058 21.76870851 -3.14971722 24.22724917 -4.3125 26.6875 C-4.64636719 27.38617188 -4.98023438 28.08484375 -5.32421875 28.8046875 C-7.16459398 32.40077999 -7.16459398 32.40077999 -7.8125 36.3125 C-2.5325 36.3125 2.7475 36.3125 8.1875 36.3125 C6.79613728 32.13841183 5.39568227 28.39331438 3.5625 24.4375 C3.11648438 23.47070312 2.67046875 22.50390625 2.2109375 21.5078125 C1.87320312 20.78335938 1.53546875 20.05890625 1.1875 19.3125 C0.5275 19.3125 -0.1325 19.3125 -0.8125 19.3125 Z " fill="#FEFEFE" transform="translate(498.8125,48.6875)"/>
<path d="M0 0 C3.1875 0.3125 3.1875 0.3125 5.125 1.79418945 C7.92952237 5.21850861 9.57187409 8.89596546 11.375 12.91796875 C11.75938232 13.75660965 12.14376465 14.59525055 12.53979492 15.45930481 C13.76410029 18.13579483 14.97589311 20.81774138 16.1875 23.5 C17.00179532 25.28487444 17.81689154 27.06938373 18.6328125 28.85351562 C20.48445105 32.90919149 22.33161385 36.96676696 24.16040039 41.0328064 C24.87583627 42.62074839 25.59680333 44.20620505 26.32202148 45.78970337 C26.68497314 46.58911346 27.0479248 47.38852356 27.421875 48.2121582 C27.75026367 48.93047318 28.07865234 49.64878815 28.41699219 50.38887024 C29.40989081 52.8677151 29.728438 54.68508687 29.1875 57.3125 C28 59.125 28 59.125 26.1875 60.3125 C23.75 60.8125 23.75 60.8125 21.1875 60.3125 C17.24828136 56.49265162 15.72552334 52.38854667 13.1875 47.3125 C4.6075 47.3125 -3.9725 47.3125 -12.8125 47.3125 C-13.658125 49.271875 -14.50375 51.23125 -15.375 53.25 C-18.28542336 59.11923857 -18.28542336 59.11923857 -22.5625 60.6875 C-25.8125 60.3125 -25.8125 60.3125 -27.8125 58.3125 C-28.11788368 52.20102524 -26.11846639 46.86604905 -23.4609375 41.48828125 C-22.95525742 40.4251899 -22.95525742 40.4251899 -22.43936157 39.34062195 C-21.36780332 37.09588178 -20.27801549 34.86058101 -19.1875 32.625 C-18.47926908 31.14705866 -17.77222927 29.66854592 -17.06640625 28.18945312 C-3.77310589 0.41923399 -3.77310589 0.41923399 0 0 Z M-0.8125 19.3125 C-1.98383058 21.76870851 -3.14971722 24.22724917 -4.3125 26.6875 C-4.64636719 27.38617188 -4.98023438 28.08484375 -5.32421875 28.8046875 C-7.16459398 32.40077999 -7.16459398 32.40077999 -7.8125 36.3125 C-2.5325 36.3125 2.7475 36.3125 8.1875 36.3125 C6.79613728 32.13841183 5.39568227 28.39331438 3.5625 24.4375 C3.11648437 23.47070312 2.67046875 22.50390625 2.2109375 21.5078125 C1.87320313 20.78335938 1.53546875 20.05890625 1.1875 19.3125 C0.5275 19.3125 -0.1325 19.3125 -0.8125 19.3125 Z " fill="#FEFEFE" transform="translate(200.8125,48.6875)"/>
<path d="M0 0 C2.39453125 2.0546875 2.39453125 2.0546875 4.8125 4.875 C5.67230469 5.86886719 6.53210938 6.86273438 7.41796875 7.88671875 C11.01840732 12.19995506 14.55385949 16.56237214 18 21 C22.9812066 14.95703961 27.91454946 8.8889426 32.6875 2.6796875 C34 1 34 1 35 0 C38.4375 0.25 38.4375 0.25 42 1 C44 4 44 4 43.7956543 6.44213867 C42.96157118 9.12354057 42.00096541 10.73177779 40.26953125 12.92578125 C39.43518555 13.99795898 39.43518555 13.99795898 38.58398438 15.09179688 C37.99939453 15.82462891 37.41480469 16.55746094 36.8125 17.3125 C35.10155555 19.49556368 33.39190285 21.67917906 31.69482422 23.87304688 C30.59435062 25.25410796 29.45122095 26.60259301 28.26220703 27.90820312 C23.34535344 33.57845737 23.16673089 38.54731856 23.25 45.875 C23.24237059 47.93494096 23.22713839 49.99487238 23.203125 52.0546875 C23.20989258 52.95687012 23.21666016 53.85905273 23.22363281 54.78857422 C23 57 23 57 21 59 C17.5 59.25 17.5 59.25 14 59 C12 57 12 57 11.80810547 54.62084961 C11.82760254 53.64124268 11.84709961 52.66163574 11.8671875 51.65234375 C11.86460937 50.57146484 11.86203125 49.49058594 11.859375 48.37695312 C11.86966849 46.11109859 11.90295845 43.84521414 11.9609375 41.58007812 C11.90282182 35.43797713 11.41749266 31.72546204 7.24609375 27.0546875 C5.84559863 25.68772316 4.43139508 24.33457342 3 23 C2.09792453 21.96946826 1.21274687 20.92355584 0.35546875 19.85546875 C-1.10139533 18.06260718 -2.55975274 16.27095814 -4.01953125 14.48046875 C-4.67308594 13.66191406 -5.32664063 12.84335937 -6 12 C-6.57234375 11.28585938 -7.1446875 10.57171875 -7.734375 9.8359375 C-9.43942891 7.36255683 -9.52741766 5.93846982 -9 3 C-6.21457282 0.00824488 -3.99474876 -0.56983916 0 0 Z " fill="#FEFEFE" transform="translate(239,49)"/>
<path d="M0 0 C0.74093399 -0.00902847 1.48186798 -0.01805695 2.24525452 -0.02735901 C3.81116702 -0.04185486 5.37714 -0.05074661 6.94311523 -0.05444336 C9.33616234 -0.06634907 11.72663711 -0.11554087 14.11914062 -0.16601562 C15.64191452 -0.17547932 17.16470422 -0.18271462 18.6875 -0.1875 C19.40115219 -0.20703232 20.11480438 -0.22656464 20.8500824 -0.24668884 C24.35243998 -0.21495225 26.12602953 0.14010146 28.8684082 2.36962891 C30.87339958 6.27293278 30.91358788 9.67189325 30.80078125 13.953125 C30.79512146 14.76730392 30.78946167 15.58148285 30.78363037 16.42033386 C30.76132399 19.00869728 30.7111407 21.59565215 30.66015625 24.18359375 C30.64008372 25.94333931 30.62183427 27.70310668 30.60546875 29.46289062 C30.56147832 33.7661638 30.49249252 38.06839035 30.41015625 42.37109375 C28.76015625 42.70109375 27.11015625 43.03109375 25.41015625 43.37109375 C25.41015625 42.71109375 25.41015625 42.05109375 25.41015625 41.37109375 C26.07015625 41.04109375 26.73015625 40.71109375 27.41015625 40.37109375 C27.45952135 35.42319198 27.49585894 30.47543292 27.52001953 25.52734375 C27.53008942 23.84339909 27.54374613 22.15947196 27.56103516 20.47558594 C27.58524051 18.05789874 27.59662921 15.64044232 27.60546875 13.22265625 C27.61579132 12.46739655 27.62611389 11.71213684 27.63674927 10.93399048 C27.63714943 9.07815395 27.53238341 7.22290095 27.41015625 5.37109375 C24.9544245 2.915362 23.55770556 3.11643229 20.20349121 3.06755066 C19.49825317 3.06846207 18.79301514 3.06937347 18.06640625 3.0703125 C17.34151001 3.06602737 16.61661377 3.06174225 15.86975098 3.05732727 C14.33651779 3.05158208 12.80325735 3.05108511 11.27001953 3.05541992 C8.91912581 3.05858169 6.56948817 3.03511914 4.21875 3.00976562 C2.73047034 3.00749288 1.24218729 3.00678902 -0.24609375 3.0078125 C-0.95133179 2.99860275 -1.65656982 2.98939301 -2.38317871 2.97990417 C-4.57803783 2.96603959 -4.57803783 2.96603959 -7.58984375 3.37109375 C-9.62803186 6.42837592 -9.84643662 7.11199776 -9.90869141 10.56713867 C-9.9285611 11.40778366 -9.94843079 12.24842865 -9.96890259 13.11454773 C-9.9862294 14.46937004 -9.9862294 14.46937004 -10.00390625 15.8515625 C-10.0232724 16.77955154 -10.04263855 17.70754059 -10.06259155 18.66365051 C-10.12238619 21.628538 -10.1687723 24.59346432 -10.21484375 27.55859375 C-10.25302363 29.56837634 -10.29207537 31.57814256 -10.33203125 33.58789062 C-10.42808768 38.51549217 -10.51211924 43.44317033 -10.58984375 48.37109375 C-11.88720459 48.3961499 -13.18456543 48.42120605 -14.52124023 48.44702148 C-19.31643231 48.54091127 -24.11147325 48.64117624 -28.90649414 48.7434082 C-30.98523432 48.78682709 -33.06401178 48.82849687 -35.14282227 48.8684082 C-38.1239752 48.92594296 -41.10493924 48.98968494 -44.0859375 49.0546875 C-45.48905434 49.07975624 -45.48905434 49.07975624 -46.92051697 49.10533142 C-47.78133377 49.12527664 -48.64215057 49.14522186 -49.52905273 49.16577148 C-50.67155739 49.18908791 -50.67155739 49.18908791 -51.83714294 49.21287537 C-53.61719381 49.18488704 -53.61719381 49.18488704 -54.58984375 50.37109375 C-54.67839536 53.03735405 -54.70509048 55.67756489 -54.6875 58.34375 C-54.68608505 59.14139267 -54.6846701 59.93903534 -54.68321228 60.760849 C-54.67759691 63.3184681 -54.66504187 65.87600093 -54.65234375 68.43359375 C-54.64733073 70.1634102 -54.64276748 71.89322801 -54.63867188 73.62304688 C-54.6276225 77.87242928 -54.61034761 82.12174687 -54.58984375 86.37109375 C-49.49934793 86.25300154 -44.4090537 86.12876462 -39.31884766 85.9987793 C-37.58646749 85.95541295 -35.85404412 85.91373912 -34.12158203 85.8737793 C-31.63430748 85.81611781 -29.14725082 85.75241177 -26.66015625 85.6875 C-25.88302277 85.67078751 -25.10588928 85.65407501 -24.3052063 85.63685608 C-20.31710159 85.60635946 -20.31710159 85.60635946 -16.58984375 84.37109375 C-17.08484375 86.35109375 -17.08484375 86.35109375 -17.58984375 88.37109375 C-22.64349667 88.47006556 -27.69658399 88.54260978 -32.75097656 88.59082031 C-34.46982654 88.61092003 -36.18860827 88.63820464 -37.90722656 88.67285156 C-40.37972864 88.72144409 -42.85132585 88.7440781 -45.32421875 88.76171875 C-46.47443512 88.79268646 -46.47443512 88.79268646 -47.64788818 88.82427979 C-50.99132997 88.82568188 -53.21018595 88.60637726 -56.07763672 86.8293457 C-58.14543533 83.46792106 -58.12785402 80.47579985 -58.05078125 76.6484375 C-58.04986481 75.90654678 -58.04894836 75.16465607 -58.04800415 74.40028381 C-58.04197586 72.83604512 -58.02625277 71.27181756 -58.00146484 69.70776367 C-57.96491417 67.31320711 -57.9604459 64.92019728 -57.9609375 62.52539062 C-57.95110724 61.00389288 -57.93945063 59.4824056 -57.92578125 57.9609375 C-57.9235556 57.24526108 -57.92132996 56.52958466 -57.91903687 55.79222107 C-57.84873611 52.11419299 -57.68459931 50.51322709 -55.58984375 47.37109375 C-52.85877864 46.46073871 -51.29091136 46.24893662 -48.4855957 46.25756836 C-47.66497147 46.25764389 -46.84434723 46.25771942 -45.99885559 46.25779724 C-44.67684395 46.26553917 -44.67684395 46.26553917 -43.328125 46.2734375 C-41.9694355 46.27555992 -41.9694355 46.27555992 -40.58329773 46.27772522 C-37.68961284 46.28332374 -34.79600526 46.29587594 -31.90234375 46.30859375 C-29.94075633 46.31360894 -27.97916769 46.31817182 -26.01757812 46.32226562 C-21.20830354 46.33329268 -16.39908675 46.35055628 -11.58984375 46.37109375 C-11.59508057 45.14479248 -11.60031738 43.91849121 -11.60571289 42.6550293 C-11.62379936 38.10962655 -11.63528915 33.56422699 -11.64477539 29.01879883 C-11.64980725 27.05069443 -11.65663333 25.08259378 -11.6652832 23.11450195 C-11.67739892 20.28726274 -11.68308351 17.46007291 -11.6875 14.6328125 C-11.69266129 13.75147141 -11.69782257 12.87013031 -11.70314026 11.96208191 C-11.70321579 11.14145767 -11.70329132 10.32083344 -11.70336914 9.4753418 C-11.70558975 8.75364304 -11.70781036 8.03194427 -11.71009827 7.28837585 C-11.58984375 5.37109375 -11.58984375 5.37109375 -10.58984375 2.37109375 C-6.95900585 -0.04946485 -4.20378079 0.03149974 0 0 Z " fill="#62B4BE" transform="translate(78.58984375,11.62890625)"/>
<path d="M0 0 C1.13917374 0.00666183 1.13917374 0.00666183 2.30136108 0.01345825 C3.59247299 0.01368484 3.59247299 0.01368484 4.90966797 0.01391602 C5.83991791 0.02423859 6.77016785 0.03456116 7.72860718 0.04519653 C8.68020721 0.04802643 9.63180725 0.05085632 10.61224365 0.05377197 C13.6589706 0.06498914 16.70540621 0.09009641 19.75204468 0.11550903 C21.81454044 0.12553685 23.8770408 0.13466304 25.93954468 0.14285278 C31.00215735 0.16493349 36.06455158 0.19947374 41.12704468 0.24050903 C41.12704468 0.90050903 41.12704468 1.56050903 41.12704468 2.24050903 C26.60704468 2.57050903 12.08704468 2.90050903 -2.87295532 3.24050903 C-2.54295532 13.80050903 -2.21295532 24.36050903 -1.87295532 35.24050903 C9.67704468 35.57050903 21.22704468 35.90050903 33.12704468 36.24050903 C33.45704468 35.25050903 33.78704468 34.26050903 34.12704468 33.24050903 C34.45704468 34.23050903 34.78704468 35.22050903 35.12704468 36.24050903 C33.12704468 38.24050903 33.12704468 38.24050903 29.5953064 38.46755981 C28.08241137 38.46724266 26.5694938 38.45591536 25.05673218 38.43582153 C24.26050446 38.43299164 23.46427673 38.43016174 22.6439209 38.42724609 C20.09647705 38.41603543 17.54938257 38.39092965 15.00204468 38.36550903 C13.27678933 38.35548036 11.55152849 38.34635431 9.82626343 38.33816528 C5.59305554 38.31609325 1.36010938 38.2815577 -2.87295532 38.24050903 C-4.39559642 35.19522685 -4.0358107 32.01905657 -4.04092407 28.67800903 C-4.04425247 27.93091675 -4.04758087 27.18382446 -4.05101013 26.41409302 C-4.05607498 24.83377702 -4.05841859 23.25345032 -4.05825806 21.67312622 C-4.06044666 19.25009661 -4.07861233 16.82752068 -4.0975647 14.40457153 C-4.10049824 12.87071893 -4.1024833 11.33686415 -4.10342407 9.80300903 C-4.11060959 9.07589722 -4.1177951 8.3487854 -4.12519836 7.59963989 C-4.09291191 0.52557702 -4.09291191 0.52557702 0 0 Z " fill="#0B8998" transform="translate(26.872955322265625,59.759490966796875)"/>
<path d="M0 0 C0.66 0 1.32 0 2 0 C1.67 0.99 1.34 1.98 1 3 C0.91492921 5.7315956 0.88408435 8.43691443 0.90234375 11.16796875 C0.9037587 11.96278152 0.90517365 12.7575943 0.90663147 13.57649231 C0.91222622 16.11353325 0.92477772 18.65048575 0.9375 21.1875 C0.94251568 22.90820185 0.94707847 24.62890508 0.95117188 26.34960938 C0.96219393 30.5664403 0.97945494 34.78320516 1 39 C6.09049582 38.88190779 11.18079005 38.75767087 16.27099609 38.62768555 C18.00337626 38.5843192 19.73579963 38.54264537 21.46826172 38.50268555 C23.95553627 38.44502406 26.44259293 38.38131802 28.9296875 38.31640625 C30.09538773 38.29133751 30.09538773 38.29133751 31.28463745 38.26576233 C35.27274216 38.23526571 35.27274216 38.23526571 39 37 C38.67 38.32 38.34 39.64 38 41 C32.94634708 41.09897181 27.89325976 41.17151603 22.83886719 41.21972656 C21.12001721 41.23982628 19.40123548 41.26711089 17.68261719 41.30175781 C15.21011511 41.35035034 12.7385179 41.37298435 10.265625 41.390625 C9.11540863 41.42159271 9.11540863 41.42159271 7.94195557 41.45318604 C4.59851378 41.45458813 2.3796578 41.23528351 -0.48779297 39.45825195 C-2.55559158 36.09682731 -2.53801027 33.1047061 -2.4609375 29.27734375 C-2.46002106 28.53545303 -2.45910461 27.79356232 -2.4581604 27.02919006 C-2.45213211 25.46495137 -2.43640902 23.90072381 -2.41162109 22.33666992 C-2.37507042 19.94211336 -2.37060215 17.54910353 -2.37109375 15.15429688 C-2.36126349 13.63279913 -2.34960688 12.11131185 -2.3359375 10.58984375 C-2.33371185 9.87416733 -2.33148621 9.15849091 -2.32919312 8.42112732 C-2.25889236 4.74309924 -2.09475556 3.14213334 0 0 Z " fill="#379FAC" transform="translate(23,59)"/>
<path d="M0 0 C1.44585011 -0.01947585 2.89226346 -0.01051488 4.33789062 0.02148438 C5.10339233 0.02144409 5.86889404 0.02140381 6.65759277 0.0213623 C8.27490455 0.0267201 9.89221542 0.04431443 11.50927734 0.07324219 C13.9855093 0.11508851 16.45902114 0.11431342 18.93554688 0.10742188 C20.50718037 0.11791492 22.07879983 0.13085365 23.65039062 0.14648438 C24.39107788 0.14668579 25.13176514 0.14688721 25.89489746 0.14709473 C28.69778064 0.21165469 30.97014427 0.33361147 33.46606445 1.67504883 C35.07873351 4.71847818 34.86066802 7.7713156 34.78710938 11.12695312 C34.78286453 11.85517776 34.77861969 12.5834024 34.77424622 13.33369446 C34.75746796 15.65708565 34.71981917 17.97960587 34.68164062 20.30273438 C34.6665926 21.87889371 34.6529044 23.45506666 34.640625 25.03125 C34.60756748 28.89291315 34.55579256 32.75392615 34.49414062 36.61523438 C33.83414063 36.61523438 33.17414063 36.61523438 32.49414062 36.61523438 C32.16414063 25.72523437 31.83414063 14.83523437 31.49414062 3.61523438 C20.27414063 3.61523438 9.05414063 3.61523438 -2.50585938 3.61523438 C-3.49585937 5.59523438 -4.48585938 7.57523437 -5.50585938 9.61523438 C-6.49585937 9.94523437 -7.48585938 10.27523437 -8.50585938 10.61523438 C-7.88084543 8.93250451 -7.20408555 7.26892795 -6.50585938 5.61523438 C-5.96928711 4.3090918 -5.96928711 4.3090918 -5.421875 2.9765625 C-3.50585938 0.61523438 -3.50585938 0.61523438 0 0 Z " fill="#0B8898" transform="translate(118.505859375,59.384765625)"/>
<path d="M0 0 C1.32 0.33 2.64 0.66 4 1 C4.375 3.1875 4.375 3.1875 4 6 C2.17130326 8.08832653 0.30947441 9.38336791 -2 11 C-2.66 11 -3.32 11 -4 11 C-4 11.66 -4 12.32 -4 13 C-3.01 13 -2.02 13 -1 13 C-1 12.34 -1 11.68 -1 11 C1.31 10.34 3.62 9.68 6 9 C6 9.66 6 10.32 6 11 C4.35 11.33 2.7 11.66 1 12 C1 12.66 1 13.32 1 14 C-10.05263158 15.47368421 -10.05263158 15.47368421 -13 14 C-11.86047615 10.58142845 -10.32413725 9.46199711 -7.55859375 7.2734375 C-5.8174997 5.90018565 -5.8174997 5.90018565 -3.75 3.6875 C-2 2 -2 2 0 2 C0 1.34 0 0.68 0 0 Z " fill="#57AEB9" transform="translate(101,62)"/>
<path d="M0 0 C0.66 0 1.32 0 2 0 C1.18290547 3.86262869 0.55714253 6.41102075 -2.1875 9.3125 C-5 11 -5 11 -12 13 C-12 25.54 -12 38.08 -12 51 C-12.66 51 -13.32 51 -14 51 C-15.57726832 47.84546335 -15.14190506 44.46259198 -15.1328125 41 C-15.13376923 40.20851562 -15.13472595 39.41703125 -15.13571167 38.6015625 C-15.13639259 36.92708253 -15.13454444 35.25259991 -15.13037109 33.578125 C-15.12502158 31.01035654 -15.13031903 28.442763 -15.13671875 25.875 C-15.13605795 24.24999961 -15.13477676 22.62499933 -15.1328125 21 C-15.13483673 20.22914062 -15.13686096 19.45828125 -15.13894653 18.6640625 C-15.11496066 13.22992132 -15.11496066 13.22992132 -14 11 C-10.9375 10.375 -10.9375 10.375 -8 10 C-7.67 9.01 -7.34 8.02 -7 7 C-6.01 6.67 -5.02 6.34 -4 6 C-1.63493157 3.99878825 -1.0106678 3.03200339 0 0 Z " fill="#53ADB8" transform="translate(82,93)"/>
<path d="M0 0 C1.38594529 0.00031696 2.77191535 0.01163319 4.15771484 0.03173828 C4.88735443 0.03456818 5.61699402 0.03739807 6.3687439 0.04031372 C8.70221262 0.05152076 11.03529937 0.07662568 13.36865234 0.10205078 C14.94937597 0.11207993 16.53010561 0.1212059 18.11083984 0.12939453 C21.98859149 0.15146173 25.86605712 0.18599463 29.74365234 0.22705078 C29.74365234 0.55705078 29.74365234 0.88705078 29.74365234 1.22705078 C19.18365234 1.22705078 8.62365234 1.22705078 -2.25634766 1.22705078 C-2.58634766 15.74705078 -2.91634766 30.26705078 -3.25634766 45.22705078 C-4.24634766 45.72205078 -4.24634766 45.72205078 -5.25634766 46.22705078 C-5.30694646 39.99743101 -5.34203828 33.76786398 -5.36621094 27.53808594 C-5.37628517 25.41762308 -5.38994499 23.29717417 -5.40722656 21.17675781 C-5.43141255 18.13359135 -5.44281635 15.09060812 -5.45166016 12.04736328 C-5.46198273 11.09523956 -5.4723053 10.14311584 -5.48294067 9.16213989 C-5.48309174 8.28137787 -5.4832428 7.40061584 -5.48339844 6.49316406 C-5.48783966 5.71595001 -5.49228088 4.93873596 -5.49685669 4.13796997 C-5.03677892 0.48250881 -3.43617448 0.23958931 0 0 Z " fill="#078796" transform="translate(74.25634765625,13.77294921875)"/>
<path d="M0 0 C0.66 0.33 1.32 0.66 2 1 C-1.75 4 -1.75 4 -4 4 C-3.9312614 8.94842001 -3.84336531 13.89598371 -3.73754883 18.84375 C-3.70425565 20.52757285 -3.67623744 22.21150848 -3.65356445 23.89550781 C-3.62009795 26.31364086 -3.56778964 28.73073624 -3.51171875 31.1484375 C-3.50213387 32.28132706 -3.50213387 32.28132706 -3.49235535 33.43710327 C-3.46019682 35.78645901 -3.46019682 35.78645901 -3 39 C-2.01 39.66 -1.02 40.32 0 41 C-1.66611905 41.042721 -3.33382885 41.04063832 -5 41 C-6 40 -6 40 -6.11352539 36.48999023 C-6.11336626 34.92951578 -6.10767142 33.36903607 -6.09765625 31.80859375 C-6.0962413 30.98875504 -6.09482635 30.16891632 -6.09336853 29.32423401 C-6.08775289 26.69528618 -6.07519779 24.06642227 -6.0625 21.4375 C-6.05748701 19.65950643 -6.05292376 17.88151154 -6.04882812 16.10351562 C-6.03777839 11.73564455 -6.02050331 7.36783652 -6 3 C-4.03533587 1.93224776 -2.03144641 0.93446535 0 0 Z " fill="#0A8898" transform="translate(75,103)"/>
<path d="M0 0 C4.70038871 3.73754092 4.70038871 3.73754092 5.44692993 6.88320923 C5.57730576 9.13098074 5.5624006 11.33165214 5.48828125 13.58203125 C5.48120651 14.39621017 5.47413177 15.2103891 5.46684265 16.04924011 C5.43895598 18.63794643 5.37623316 21.22445273 5.3125 23.8125 C5.2874095 25.57223428 5.26459764 27.33200263 5.24414062 29.09179688 C5.18914872 33.39537296 5.10291992 37.6973141 5 42 C2.525 42.495 2.525 42.495 0 43 C0 42.34 0 41.68 0 41 C0.99 40.505 0.99 40.505 2 40 C2.0493651 35.05209823 2.08570269 30.10433917 2.10986328 25.15625 C2.11993317 23.47230534 2.13358988 21.78837821 2.15087891 20.10449219 C2.17508426 17.68680499 2.18647296 15.26934857 2.1953125 12.8515625 C2.20563507 12.0963028 2.21595764 11.34104309 2.22659302 10.56289673 C2.22699318 8.7070602 2.12222716 6.8518072 2 5 C1.34 4.34 0.68 3.68 0 3 C0 2.01 0 1.02 0 0 Z " fill="#50ABB6" transform="translate(104,12)"/>
<path d="M0 0 C1.485 0.99 1.485 0.99 3 2 C3.26686213 4.69540315 3.34818073 7.15847464 3.29296875 9.8515625 C3.28872391 10.62559418 3.28447906 11.39962585 3.28010559 12.19711304 C3.26328998 14.67342677 3.22563395 17.14893158 3.1875 19.625 C3.17245682 21.30207159 3.15876778 22.97915592 3.14648438 24.65625 C3.11337721 28.77114581 3.06157637 32.88543569 3 37 C1.02 37.495 1.02 37.495 -1 38 C-1 37.34 -1 36.68 -1 36 C-0.34 36 0.32 36 1 36 C0.67 24.12 0.34 12.24 0 0 Z " fill="#0C8A99" transform="translate(104,15)"/>
<path d="M0 0 C0.66 0 1.32 0 2 0 C2 0.66 2 1.32 2 2 C2.99 2.33 3.98 2.66 5 3 C5 14.22 5 25.44 5 37 C4.01 37.495 4.01 37.495 3 38 C2.98018066 36.99098633 2.96036133 35.98197266 2.93994141 34.94238281 C2.86376664 31.19245804 2.77506784 27.44291529 2.68261719 23.69335938 C2.64437642 22.07169141 2.60951497 20.44994004 2.578125 18.828125 C2.53236743 16.49448883 2.47439184 14.16142438 2.4140625 11.828125 C2.40251129 11.10506165 2.39096008 10.38199829 2.37905884 9.63702393 C2.27146822 5.95276792 2.02278111 3.13708508 0 0 Z " fill="#42A5B1" transform="translate(150,59)"/>
<path d="M0 0 C0.66 0.33 1.32 0.66 2 1 C0.02 3.31 -1.96 5.62 -4 8 C0.06815373 6.15083921 3.0094833 4.33557632 6 1 C6.33 1.66 6.66 2.32 7 3 C6.34 3 5.68 3 5 3 C4.8453125 3.928125 4.8453125 3.928125 4.6875 4.875 C4 7 4 7 1 9 C0.01 9 -0.98 9 -2 9 C-2 9.66 -2 10.32 -2 11 C-3.32 11 -4.64 11 -6 11 C-6 9.02 -6 7.04 -6 5 C-5.01 4.67 -4.02 4.34 -3 4 C-2.67 3.01 -2.34 2.02 -2 1 C-1.34 0.67 -0.68 0.34 0 0 Z " fill="#71BAC3" transform="translate(77,85)"/>
<path d="M0 0 C0.66 0 1.32 0 2 0 C1.16292326 3.95709004 0.54319694 6.44212206 -2.3125 9.375 C-4.97866997 10.98710277 -6.92640633 11.64873215 -10 12 C-10 11.34 -10 10.68 -10 10 C-9.34 10 -8.68 10 -8 10 C-7.67 9.01 -7.34 8.02 -7 7 C-6.01 6.67 -5.02 6.34 -4 6 C-1.63493157 3.99878825 -1.0106678 3.03200339 0 0 Z " fill="#49A6B1" transform="translate(82,93)"/>
<path d="M0 0 C0.99 0 1.98 0 3 0 C2.71831703 1.95979427 2.42433283 3.91782378 2.125 5.875 C1.96257812 6.96554688 1.80015625 8.05609375 1.6328125 9.1796875 C1 12 1 12 -1 14 C-1.99 13.67 -2.98 13.34 -4 13 C-3.34 11.02 -2.68 9.04 -2 7 C-1.34 7 -0.68 7 0 7 C0 6.01 0 5.02 0 4 C-0.66 4 -1.32 4 -2 4 C-1.34 2.68 -0.68 1.36 0 0 Z " fill="#5AAFBA" transform="translate(88,79)"/>
<path d="M0 0 C-1.53574542 3.45542719 -3.39742827 6.24870989 -6 9 C-8.75 9.8125 -8.75 9.8125 -11 10 C-9.63088196 6.8510285 -8.1247864 4.9521513 -5.5 2.75 C-4.8915625 2.22921875 -4.283125 1.7084375 -3.65625 1.171875 C-2 0 -2 0 0 0 Z " fill="#0F8494" transform="translate(84,83)"/>
<path d="M0 0 C1.32 0.33 2.64 0.66 4 1 C4.25 3.3125 4.25 3.3125 4 6 C2 7.8125 2 7.8125 0 9 C0.33 7.35 0.66 5.7 1 4 C0.01 4 -0.98 4 -2 4 C-2 4.66 -2 5.32 -2 6 C-3.65 6.66 -5.3 7.32 -7 8 C-5.9024777 5.00675737 -5.32317108 4.15389099 -2.375 2.75 C-1.59125 2.5025 -0.8075 2.255 0 2 C0 1.34 0 0.68 0 0 Z " fill="#6CB7C1" transform="translate(101,62)"/>
<path d="M0 0 C0.33 0.66 0.66 1.32 1 2 C0.21625 2.226875 -0.5675 2.45375 -1.375 2.6875 C-4.21535469 3.76670768 -4.21535469 3.76670768 -5.1875 6.5625 C-5.5896875 7.7690625 -5.5896875 7.7690625 -6 9 C-6.99 9.495 -6.99 9.495 -8 10 C-8.33 10.99 -8.66 11.98 -9 13 C-9.66 13 -10.32 13 -11 13 C-9.31755566 7.79971748 -6.44670586 3.45479808 -1.6875 0.625 C-1.130625 0.41875 -0.57375 0.2125 0 0 Z " fill="#67B6BF" transform="translate(101,55)"/>
<path d="M0 0 C0.66 0.33 1.32 0.66 2 1 C1.4375 3.375 1.4375 3.375 0 6 C-3.625 7.3125 -3.625 7.3125 -7 8 C-6.1875 6.0625 -6.1875 6.0625 -5 4 C-4.01 3.67 -3.02 3.34 -2 3 C-2 2.34 -2 1.68 -2 1 C-1.34 0.67 -0.68 0.34 0 0 Z " fill="#058292" transform="translate(101,65)"/>
<path d="M0 0 C0.66 0 1.32 0 2 0 C0.54331217 2.96783129 -1.01232086 5.86415313 -2.625 8.75 C-3.29402344 9.94882813 -3.29402344 9.94882813 -3.9765625 11.171875 C-4.31429687 11.77515625 -4.65203125 12.3784375 -5 13 C-5.66 13 -6.32 13 -7 13 C-5.65846062 7.99971686 -3.51629997 3.80932497 0 0 Z " fill="#0F8898" transform="translate(92,60)"/>
<path d="M0 0 C0.66 0.33 1.32 0.66 2 1 C1.875 2.875 1.875 2.875 1 5 C-2.0625 6.25 -2.0625 6.25 -5 7 C-4.60196439 4.11424181 -4.20990931 3.17810487 -1.9375 1.25 C-1.298125 0.8375 -0.65875 0.425 0 0 Z " fill="#50A8B3" transform="translate(93,70)"/>
<path d="M0 0 C0.33 0 0.66 0 1 0 C1 2.97 1 5.94 1 9 C0.01 9 -0.98 9 -2 9 C-1.67 8.34 -1.34 7.68 -1 7 C-1.66 6.67 -2.32 6.34 -3 6 C-2.34 5.34 -1.68 4.68 -1 4 C-0.3574765 1.93125966 -0.3574765 1.93125966 0 0 Z " fill="#3EA0AD" transform="translate(85,76)"/>
<path d="M0 0 C2.64 0 5.28 0 8 0 C7.01 1.485 7.01 1.485 6 3 C2.875 3.1875 2.875 3.1875 0 3 C0 2.01 0 1.02 0 0 Z " fill="#43A5B0" transform="translate(99,143)"/>
<path d="M0 0 C0.99 0 1.98 0 3 0 C2.34 2.31 1.68 4.62 1 7 C0.67 6.01 0.34 5.02 0 4 C-0.66 4 -1.32 4 -2 4 C-1.34 2.68 -0.68 1.36 0 0 Z " fill="#71BBC4" transform="translate(88,79)"/>
<path d="M0 0 C1 3 1 3 -0.4375 6.1875 C-1.2109375 7.5796875 -1.2109375 7.5796875 -2 9 C-2.6875 7.3125 -2.6875 7.3125 -3 5 C-1.5625 2.25 -1.5625 2.25 0 0 Z " fill="#0B8898" transform="translate(92,79)"/>
</svg>
